<?xml version="1.0" standalone="no"?>
<!DOCTYPE svg PUBLIC "-//W3C//DTD SVG 20010904//EN"
 "http://www.w3.org/TR/2001/REC-SVG-20010904/DTD/svg10.dtd">
<svg version="1.0" xmlns="http://www.w3.org/2000/svg"
 width="735.000000pt" height="885.000000pt" viewBox="0 0 735.000000 885.000000"
 preserveAspectRatio="xMidYMid meet">

<g transform="translate(0.000000,885.000000) scale(0.100000,-0.100000)"
fill="#000000" stroke="none">
<path d="M0 4425 l0 -4425 1520 0 1520 0 0 25 c0 14 5 25 10 25 6 0 10 -11 10
-25 0 -21 5 -25 30 -25 25 0 30 4 30 25 0 18 -5 25 -20 25 -17 0 -20 7 -20 39
0 22 -5 41 -11 43 -19 6 9 48 31 48 11 0 20 7 20 15 0 8 7 15 15 15 11 0 15
11 15 40 0 29 -4 40 -15 40 -8 0 -15 7 -15 15 0 8 -4 15 -9 15 -5 0 -14 -7
-21 -15 -7 -8 -21 -15 -31 -15 -12 0 -19 -9 -21 -26 l-3 -26 -25 21 c-15 12
-21 24 -15 28 12 10 45 79 45 95 0 9 -3 9 -12 0 -7 -7 -25 -12 -40 -12 -26 0
-28 3 -28 40 0 53 -18 51 -23 -3 -3 -39 -4 -38 -5 12 -2 49 0 53 18 48 16 -4
20 0 20 19 0 17 -6 24 -20 24 -16 0 -19 5 -14 29 8 36 -11 49 -37 25 -23 -20
-25 -54 -4 -54 8 0 15 -9 15 -20 0 -11 -7 -20 -15 -20 -8 0 -15 7 -15 16 0 8
-4 12 -10 9 -5 -3 -10 -13 -10 -21 0 -16 -29 -51 -31 -37 -1 4 0 18 1 31 1 14
-4 22 -14 22 -11 0 -16 9 -16 30 0 17 -4 30 -9 30 -15 0 -22 -18 -9 -22 7 -3
9 -12 5 -22 -6 -14 -10 -16 -21 -7 -19 16 -46 -22 -46 -66 0 -23 -5 -33 -15
-33 -8 0 -17 -11 -21 -25 -8 -33 -44 -55 -44 -27 0 27 -22 42 -49 35 -17 -4
-23 -1 -28 16 -3 11 -10 21 -15 21 -13 0 -38 -64 -38 -99 0 -32 -27 -51 -37
-25 -3 8 -3 34 0 57 4 27 1 51 -8 67 l-13 25 -12 -30 c-15 -41 -43 -95 -50
-95 -3 0 -11 5 -18 12 -9 9 -15 9 -24 0 -9 -9 -7 -13 5 -18 18 -7 24 -44 7
-44 -6 0 -15 -12 -21 -27 -8 -22 -12 -24 -19 -13 -6 10 -4 23 5 37 9 14 11 24
5 28 -14 9 -12 49 3 64 10 10 9 12 -3 11 -41 -6 -57 13 -20 23 11 3 28 19 37
36 13 21 23 29 35 25 11 -3 18 0 18 8 0 22 39 41 56 27 8 -6 17 -10 19 -7 3 2
5 43 6 91 1 63 5 90 16 99 13 10 13 14 -3 25 -21 15 -15 17 20 3 17 -6 26 -6
26 0 0 6 -7 10 -16 10 -10 0 -14 5 -10 15 4 12 2 14 -11 7 -9 -5 -25 -8 -37
-6 -12 3 -15 2 -9 -2 14 -6 18 -34 5 -34 -9 0 -27 33 -37 68 -4 12 -12 22 -18
22 -7 0 -6 4 3 10 9 6 11 10 3 10 -7 0 -10 7 -6 17 4 10 2 14 -4 10 -5 -4 -15
5 -22 19 -14 31 -14 37 -1 29 6 -3 7 1 4 9 -7 18 -24 12 -24 -9 0 -8 -4 -16
-9 -19 -5 -4 -7 4 -4 16 4 19 3 21 -7 8 -10 -13 -11 -12 -6 3 3 10 6 21 6 23
0 3 5 2 11 -2 7 -4 10 -1 7 7 -3 8 -9 14 -14 14 -25 1 -54 32 -54 57 0 30 17
43 84 62 30 9 41 17 41 31 0 26 27 55 37 41 4 -6 8 -1 8 11 0 12 -4 24 -8 27
-5 3 -5 38 0 77 5 40 6 79 4 86 -3 7 -1 13 4 13 6 0 10 9 10 20 0 20 0 20 20
2 18 -16 19 -24 11 -68 -6 -28 -6 -53 -1 -58 5 -5 11 1 14 15 10 48 18 105 22
162 6 61 5 62 -63 60 -7 0 -15 9 -19 21 -3 11 -13 29 -21 38 -12 14 -14 31 -8
83 4 42 11 65 18 62 6 -2 12 -14 12 -28 4 -89 6 -100 15 -94 6 4 9 9 6 13 -2
4 -1 14 3 23 10 26 51 6 51 -25 0 -41 10 -58 26 -45 11 9 14 8 14 -5 0 -26 16
-18 36 19 12 22 21 30 26 22 5 -8 9 -6 14 6 9 24 24 21 24 -5 0 -13 4 -29 8
-35 12 -19 35 52 28 85 -4 15 -7 45 -8 67 -1 22 -7 46 -15 53 -7 7 -13 22 -13
33 0 26 -16 24 -24 -4 -8 -32 -8 -37 8 -37 9 0 12 -12 10 -41 -4 -55 -24 -77
-24 -27 0 23 -6 38 -15 42 -8 3 -15 14 -15 24 0 10 -7 27 -15 38 -13 17 -14
17 -15 2 0 -27 -20 -22 -20 5 0 13 -5 28 -10 33 -6 6 -11 31 -12 57 -1 26 -6
47 -10 47 -4 0 -8 18 -8 40 0 22 -5 40 -10 40 -7 0 -9 -13 -6 -32 3 -18 8 -61
11 -95 4 -58 18 -99 39 -114 5 -4 6 -23 2 -43 -5 -27 -4 -36 6 -34 7 2 13 -3
12 -9 -1 -7 -2 -25 -3 -40 -2 -24 -6 -19 -22 27 -11 30 -23 63 -26 73 -3 9 -8
17 -12 17 -3 0 -12 14 -20 30 -17 40 -33 34 -46 -18 -12 -50 -18 -56 -45 -47
-17 5 -21 13 -17 32 3 17 1 23 -9 19 -18 -7 -29 13 -15 27 14 14 15 67 1 67
-5 0 -10 -9 -10 -21 0 -15 -5 -19 -15 -15 -9 3 -15 0 -15 -9 0 -18 -27 -19
-63 -2 -32 14 -35 33 -7 40 12 3 20 14 20 27 0 18 -4 21 -27 16 -36 -7 -73 18
-55 36 10 10 14 8 18 -10 7 -23 34 -31 34 -9 0 6 3 22 6 35 5 18 2 22 -18 22
-13 0 -29 5 -35 11 -8 8 -16 7 -31 -2 -16 -10 -26 -10 -53 4 -21 10 -27 17
-16 17 14 0 16 5 11 28 -7 29 -35 57 -71 72 -31 13 -34 62 -8 148 11 34 -11
27 -24 -8 -17 -51 -30 -35 -24 32 4 41 3 59 -4 55 -7 -4 -16 13 -23 43 -7 28
-15 50 -20 50 -13 0 2 -95 17 -103 10 -6 12 -24 7 -75 -7 -77 -24 -107 -24
-44 0 24 -5 42 -11 42 -7 0 -8 13 -4 39 5 29 3 40 -9 44 -8 3 -17 -1 -21 -11
-5 -14 -7 -14 -15 -2 -14 22 -12 30 6 30 12 0 14 7 9 31 -7 29 -5 31 13 27 14
-4 19 -2 15 8 -2 7 3 26 13 42 18 31 13 69 -8 56 -8 -5 -9 -2 -4 12 15 35 18
86 5 78 -9 -5 -10 1 -5 21 5 18 3 31 -5 36 -9 5 -10 12 -3 21 5 7 11 27 12 43
1 17 8 50 14 73 9 36 9 45 -3 53 -10 6 -19 2 -31 -14 -16 -21 -17 -21 -37 -3
-13 12 -21 14 -21 7 0 -7 -4 -9 -10 -6 -5 3 -10 15 -10 26 0 11 5 17 10 14 6
-3 10 -1 10 6 0 9 3 9 14 0 10 -9 15 -8 20 4 3 9 0 15 -10 15 -10 0 -15 8 -14
23 3 35 0 43 -10 27 -8 -13 -10 -13 -10 1 0 9 7 22 15 29 8 7 15 17 15 23 0 5
8 15 17 22 12 9 17 27 18 61 0 39 4 49 18 52 16 3 17 1 7 -18 -8 -15 -8 -20
-1 -16 6 4 14 21 19 39 10 40 42 50 42 14 0 -14 -7 -30 -16 -38 -21 -17 -84
-113 -84 -128 0 -6 4 -11 9 -11 12 0 51 49 51 64 0 15 55 69 67 66 4 -2 13 7
19 19 21 40 34 48 34 20 0 -17 -8 -30 -25 -39 -14 -7 -25 -19 -25 -25 0 -7 -9
-20 -21 -31 -18 -16 -59 -92 -59 -108 0 -19 22 1 47 42 18 31 35 47 48 47 11
0 20 7 21 15 2 33 5 38 20 44 14 6 16 0 12 -41 -5 -44 0 -41 16 10 8 27 36 21
36 -8 0 -14 4 -25 8 -25 15 0 62 25 62 33 0 4 9 7 20 7 14 0 22 11 30 41 8 29
16 39 27 37 38 -7 40 -121 3 -133 -11 -4 -20 -10 -20 -14 0 -18 15 -20 36 -6
16 10 25 11 30 4 8 -13 -41 -114 -74 -150 -20 -23 -27 -25 -64 -19 -87 16
-130 -68 -76 -147 21 -30 49 -52 47 -35 -3 20 3 32 16 32 8 0 15 -4 15 -10 0
-5 9 -10 20 -10 11 0 20 5 20 12 0 7 7 5 18 -5 12 -11 22 -13 35 -6 15 9 20 4
33 -26 14 -34 17 -36 32 -22 21 18 77 47 92 47 6 0 16 -13 21 -30 6 -16 15
-28 19 -25 5 3 11 1 15 -5 11 -18 25 -11 25 13 0 35 11 39 32 15 14 -17 21
-19 27 -10 5 9 12 4 21 -15 l13 -28 6 24 c7 26 37 36 58 20 7 -6 17 -8 23 -4
12 7 23 -16 24 -51 1 -30 20 -36 24 -9 4 29 24 65 35 65 5 0 7 -7 3 -15 -7
-18 10 -20 18 -2 3 8 10 6 23 -9 19 -21 53 -28 53 -12 0 5 7 2 15 -6 13 -13
20 -13 35 -3 16 9 24 9 41 -1 16 -10 24 -10 35 -1 8 7 24 8 41 4 16 -5 42 -9
58 -10 17 -1 43 -10 59 -20 34 -23 63 -29 71 -15 10 16 65 12 72 -5 8 -23 -2
-28 -26 -15 -12 6 -25 9 -30 6 -16 -10 1 -57 24 -66 13 -5 26 -17 29 -27 3
-10 4 0 3 23 -2 45 22 82 45 68 13 -9 18 -10 38 -13 6 0 10 -9 10 -18 1 -17 1
-17 14 0 7 9 23 17 35 17 17 0 21 -6 21 -29 0 -17 5 -33 10 -36 6 -4 10 6 10
23 0 24 5 31 27 35 36 7 43 2 43 -31 0 -22 2 -24 13 -10 6 9 24 23 38 32 23
14 28 15 38 2 10 -12 19 -13 39 -5 21 8 29 7 38 -6 10 -13 15 -13 38 -2 14 8
23 17 19 20 -10 11 6 8 29 -4 13 -7 23 -8 27 -1 4 6 25 7 53 2 31 -4 49 -3 52
4 3 7 9 5 15 -5 14 -22 119 -19 136 4 8 12 15 13 22 6 6 -6 39 -12 73 -13 41
-1 64 -6 70 -16 7 -12 12 -11 30 5 20 18 21 18 34 0 7 -10 26 -18 44 -19 18 0
32 -5 32 -10 0 -8 29 -3 63 10 9 3 17 -1 19 -11 2 -13 11 -9 40 18 l37 34 12
-29 c12 -29 53 -40 62 -15 5 16 37 -9 37 -29 0 -8 4 -14 10 -14 9 0 24 57 19
75 -2 6 0 30 4 55 6 36 14 49 42 68 41 26 45 27 45 7 0 -19 7 -19 25 -1 14 13
48 10 114 -10 17 -5 22 -4 17 4 -4 7 -14 12 -23 12 -9 0 -14 3 -11 6 3 3 28
-2 54 -11 27 -8 37 -14 22 -12 -16 3 -28 0 -28 -4 0 -5 -9 -9 -19 -9 -11 0
-23 -5 -27 -12 -5 -8 -2 -9 12 -4 48 19 113 25 150 14 50 -15 51 -15 69 -17 8
0 15 -8 15 -17 0 -13 3 -14 14 -4 12 9 49 6 173 -15 87 -15 162 -31 168 -36 5
-5 14 -9 20 -9 5 0 3 5 -5 10 -10 7 1 8 35 3 28 -3 52 -9 55 -12 3 -3 37 -6
75 -6 39 -1 185 -5 325 -9 181 -6 313 -5 453 4 109 6 200 10 203 7 3 -3 -8
-30 -24 -60 -16 -30 -32 -65 -35 -78 -6 -24 -50 -105 -87 -164 -11 -16 -27
-45 -37 -62 -9 -18 -20 -33 -25 -33 -4 0 -5 -7 -2 -15 4 -8 11 -12 17 -8 6 4
8 0 4 -9 -6 -17 29 -38 63 -38 13 0 20 -7 20 -20 0 -11 7 -20 15 -20 23 0 60
-44 57 -68 -2 -16 2 -22 15 -23 24 -1 54 -7 59 -11 2 -2 4 -18 6 -36 2 -32 7
-36 42 -32 12 1 16 -3 11 -10 -4 -6 -16 -10 -26 -7 -10 3 -21 2 -24 -3 -7 -11
19 -20 43 -13 13 3 29 -3 43 -16 21 -19 21 -21 4 -27 -17 -7 -16 -8 4 -16 12
-4 19 -12 16 -18 -3 -5 1 -10 9 -10 9 0 16 -7 16 -15 0 -8 7 -15 15 -15 7 0
18 -7 23 -16 5 -9 12 -15 15 -15 24 3 31 0 18 -8 -10 -7 -8 -12 10 -24 12 -9
26 -14 30 -11 4 2 10 -5 14 -16 4 -11 10 -18 15 -15 9 6 50 -29 50 -42 1 -13
38 -53 49 -53 18 0 81 -70 81 -90 0 -22 16 -35 25 -20 11 18 25 0 25 -31 0
-16 5 -29 10 -29 6 0 10 5 10 10 0 19 41 -15 47 -38 3 -13 16 -35 29 -49 l24
-26 0 3852 0 3851 -3675 0 -3675 0 0 -4425z m1982 3324 c8 -11 9 -10 4 4 -5
16 1 17 71 13 79 -5 171 -41 166 -65 -2 -6 4 -11 12 -11 8 0 27 -19 42 -42 15
-24 32 -47 38 -53 20 -19 56 -87 77 -148 17 -49 18 -64 9 -80 -8 -11 -8 -16
-2 -12 6 3 11 -1 11 -9 0 -8 -4 -17 -9 -20 -4 -3 -6 -18 -3 -32 3 -18 1 -25
-6 -20 -6 3 -13 2 -17 -4 -11 -17 -43 -11 -50 10 -3 11 -3 24 0 30 3 5 -3 10
-14 10 -15 0 -19 -4 -14 -17 6 -16 5 -16 -8 -3 -10 10 -16 37 -17 75 -1 43 2
56 9 45 8 -12 9 -11 6 5 -2 11 -9 19 -18 17 -8 -2 -11 0 -7 4 4 4 3 13 -4 21
-6 7 -8 16 -5 19 3 4 -1 13 -9 22 -13 12 -13 17 -2 24 10 7 9 8 -4 4 -12 -4
-22 3 -32 22 -24 45 -73 82 -126 96 -28 7 -52 10 -54 7 -4 -5 -67 -6 -73 -1
-2 2 -6 3 -10 4 -5 1 -14 5 -22 10 -10 7 -12 5 -7 -5 4 -8 -1 -4 -13 9 -11 12
-22 18 -25 13 -4 -5 -1 -13 5 -17 15 -9 -8 -24 -38 -24 -12 0 -47 -11 -76 -24
-40 -18 -56 -30 -61 -50 -3 -14 -16 -34 -27 -45 -21 -19 -21 -20 -2 -15 15 4
22 0 26 -15 5 -22 -14 -43 -21 -23 -6 19 -18 14 -18 -8 0 -10 2 -17 4 -15 8 7
42 -36 37 -46 -8 -12 32 -198 51 -246 12 -27 20 -33 43 -33 16 0 31 -6 34 -12
4 -10 7 -10 18 0 15 14 49 16 49 3 0 -5 9 -11 20 -14 11 -3 18 -1 14 4 -3 5 2
9 10 9 9 0 16 -5 16 -11 0 -6 7 -3 16 5 8 9 21 16 27 17 7 0 3 4 -8 9 -14 6
-15 9 -5 9 9 1 21 -4 28 -11 9 -9 15 -9 24 0 9 9 8 12 -7 13 -13 0 -3 8 25 22
68 34 67 60 -14 202 -45 81 -52 87 -88 81 -15 -3 -28 0 -30 6 -6 16 -36 18
-42 3 -3 -9 2 -11 15 -8 15 4 19 0 20 -18 1 -13 2 -37 3 -53 1 -16 7 -31 14
-34 7 -2 12 -10 12 -18 0 -8 5 -14 11 -14 8 0 7 -6 -2 -17 -7 -10 -9 -15 -5
-11 5 4 15 -4 22 -18 12 -22 11 -28 -1 -41 -8 -8 -15 -23 -15 -33 0 -23 -32
-31 -64 -15 -13 7 -28 10 -32 7 -5 -4 -2 1 5 11 12 15 12 17 -4 11 -13 -5 -16
-4 -11 4 5 8 1 10 -10 5 -14 -5 -16 -3 -11 11 4 10 3 15 -3 11 -19 -12 -50 83
-50 151 0 36 4 64 10 64 6 0 10 6 10 13 0 7 14 28 31 45 24 24 37 30 55 26 12
-3 29 -2 36 2 18 11 47 17 83 16 52 -1 63 -5 58 -19 -3 -7 1 -13 9 -13 14 0
56 -38 51 -46 -8 -12 -1 -34 10 -34 13 0 97 -157 97 -182 0 -8 4 -18 9 -24 13
-13 21 -103 10 -110 -5 -3 -9 -13 -9 -23 0 -19 -56 -75 -98 -97 -23 -12 -29
-11 -46 4 -20 16 -20 16 -7 -1 16 -21 18 -19 -39 -39 -88 -31 -168 -42 -188
-25 -13 9 -14 9 -8 0 5 -10 -3 -13 -33 -13 -50 0 -91 15 -91 34 0 8 -12 17
-28 20 -28 7 -82 78 -82 109 0 9 -5 19 -10 22 -6 4 -8 11 -4 16 3 5 0 16 -6
24 -7 8 -9 23 -6 32 6 15 8 15 16 3 8 -13 10 -12 10 2 0 9 -10 24 -22 32 -15
11 -22 27 -24 56 -1 23 -4 44 -8 47 -3 3 -1 12 5 20 9 9 8 13 0 13 -6 0 -11
12 -11 26 0 19 4 25 15 21 20 -8 28 8 11 22 -11 9 -15 9 -19 -1 -2 -7 -5 12
-5 42 -2 60 10 96 46 150 26 39 62 75 62 63 0 -4 6 -1 13 8 7 9 15 16 20 17
36 3 66 15 61 24 -5 7 -2 8 6 3 7 -4 16 -2 21 6 6 9 12 10 17 4 11 -15 91 -13
85 3 -7 18 75 10 89 -9z m3783 -233 c86 -7 147 -17 170 -29 11 -6 30 -10 43
-8 12 1 22 -2 22 -8 0 -7 11 -9 25 -7 14 3 23 1 20 -4 -7 -12 25 -21 48 -14
13 4 17 2 12 -5 -5 -8 1 -10 21 -5 21 5 25 4 19 -6 -5 -8 -4 -11 3 -7 5 4 18
4 28 0 16 -6 16 -7 -1 -19 -16 -12 -16 -13 1 -12 11 1 30 -2 44 -6 l25 -7 -25
15 c-30 18 -21 21 14 4 14 -6 28 -19 31 -30 4 -10 11 -18 16 -18 13 0 11 17
-3 24 -7 3 -2 3 12 0 29 -8 42 -24 31 -39 -13 -16 -9 -44 6 -38 7 3 13 2 13
-1 0 -13 -29 -63 -44 -75 -8 -7 -13 -18 -10 -26 3 -7 0 -16 -7 -21 -8 -4 -10
-3 -5 4 11 18 -10 14 -25 -5 -12 -14 -12 -16 0 -8 10 5 12 4 7 -3 -4 -7 -21
-16 -39 -20 -18 -5 -31 -14 -30 -20 2 -7 -9 -14 -25 -17 -36 -8 -57 -20 -55
-31 1 -5 -4 -15 -10 -22 -17 -21 -31 25 -15 47 11 14 11 14 -4 3 -10 -8 -19
-9 -22 -3 -4 5 3 12 14 16 11 3 20 13 20 20 0 9 -6 12 -15 9 -8 -4 -15 -10
-15 -14 0 -5 -12 -13 -27 -18 l-28 -10 25 -10 c14 -5 24 -12 23 -16 -8 -18 -2
-30 7 -16 7 10 10 11 10 2 0 -7 -7 -15 -16 -19 -11 -4 -12 -8 -4 -13 7 -4 2
-13 -14 -24 -19 -12 -26 -13 -26 -4 -1 7 -8 1 -16 -14 -8 -16 -17 -28 -20 -28
-3 0 -2 5 2 11 4 8 -1 9 -16 4 -15 -5 -20 -3 -16 3 3 6 1 14 -4 17 -8 5 -9 -4
-5 -28 4 -21 3 -37 -4 -41 -7 -5 -8 -1 -4 11 6 16 5 17 -13 4 -43 -33 -103
-95 -98 -103 3 -4 -2 -5 -10 -2 -8 3 -19 -3 -25 -14 -13 -24 -4 -32 61 -57 26
-10 45 -22 42 -27 -4 -6 2 -7 15 -3 14 4 21 3 19 -5 -2 -7 3 -15 11 -18 8 -3
11 0 7 7 -9 15 -2 14 39 -4 20 -8 34 -19 33 -26 -2 -6 3 -14 10 -16 8 -3 10 1
6 11 -5 12 -2 15 10 10 8 -3 18 -15 22 -26 4 -14 9 -17 13 -9 4 6 18 9 32 7
13 -3 28 -5 32 -5 5 -1 6 -5 3 -10 -4 -5 3 -7 13 -4 31 8 60 -13 57 -42 -2
-14 1 -25 5 -25 5 0 9 -7 9 -15 0 -9 -11 -16 -27 -17 -43 -3 -87 2 -93 10 -7
9 -71 34 -90 34 -8 1 -17 4 -20 8 -3 3 -35 14 -72 24 -38 10 -68 23 -68 29 0
6 -3 8 -6 4 -7 -7 -65 13 -81 29 -7 7 -21 10 -32 7 -10 -3 -22 0 -25 6 -4 6
-18 8 -31 5 -20 -5 -27 -1 -35 20 -8 22 -14 25 -34 20 -24 -6 -25 -4 -22 35 1
25 11 52 25 69 l23 27 -16 -26 c-8 -15 -12 -29 -9 -33 9 -9 34 46 28 62 -6 15
52 82 72 82 7 0 13 4 13 8 0 9 89 102 97 102 3 0 12 8 19 18 7 9 16 17 21 18
4 0 16 4 26 9 23 10 36 -3 17 -16 -12 -9 -12 -10 3 -5 10 3 24 6 30 6 7 0 4 5
-5 11 -26 15 -23 22 28 59 34 24 49 29 57 21 17 -17 26 -13 22 12 -3 16 4 28
28 45 18 12 39 22 45 22 7 0 12 5 12 11 0 14 62 1 72 -15 5 -7 8 -7 8 0 0 15
-54 74 -68 74 -7 0 -12 5 -12 11 0 6 -7 8 -16 5 -11 -4 -18 1 -21 14 -3 11 -9
20 -14 20 -5 0 -6 -7 -2 -16 5 -12 1 -15 -13 -11 -10 3 -36 8 -56 12 -21 3
-38 9 -38 13 0 4 -24 8 -53 10 -52 4 -70 6 -157 16 -25 3 -57 7 -71 9 -14 2
-37 13 -50 26 -17 15 -19 20 -6 16 21 -9 22 4 1 20 -14 10 -12 13 17 28 19 9
41 14 49 12 8 -3 42 -7 75 -9z m-3798 -382 c-3 -3 -12 -4 -19 -1 -8 3 -5 6 6
6 11 1 17 -2 13 -5z m3903 -259 c-13 -14 -26 -22 -29 -19 -3 3 5 14 18 25 33
27 39 24 11 -6z m-487 7 c11 5 17 5 17 -2 0 -5 20 -10 45 -10 25 0 45 -5 45
-11 0 -5 -4 -7 -10 -4 -5 3 -10 1 -10 -4 0 -6 5 -11 11 -11 5 0 7 -4 4 -10 -3
-5 -2 -10 3 -10 17 0 -7 -84 -29 -100 -11 -8 -53 -42 -92 -75 -40 -33 -75 -60
-79 -60 -14 0 -80 -85 -75 -98 2 -6 -3 -20 -12 -31 -15 -17 -14 -18 9 -15 21
3 25 9 22 34 -2 23 0 26 8 15 7 -10 10 -11 10 -2 0 9 25 11 107 8 114 -5 137
-16 102 -49 -21 -20 -26 -36 -6 -18 17 14 28 4 20 -17 -4 -12 1 -10 16 6 18
18 26 20 36 12 11 -9 12 -15 2 -25 -7 -7 -15 -11 -19 -8 -4 2 -17 -1 -28 -7
-13 -7 -20 -7 -20 -1 0 6 -18 9 -42 7 -24 -1 -53 1 -65 5 -14 5 -23 5 -23 -1
0 -6 -13 -9 -30 -8 -17 1 -30 8 -30 16 0 10 -5 10 -22 -2 -12 -9 -27 -16 -33
-16 -5 0 -3 5 5 11 11 8 9 8 -10 3 -14 -5 -52 -9 -85 -9 -34 -1 -66 -5 -73 -9
-9 -5 -17 2 -25 23 -6 17 -15 31 -19 31 -13 0 -22 -24 -10 -28 7 -2 12 -8 12
-14 0 -6 -9 -3 -20 7 -11 10 -20 26 -20 37 0 10 -6 17 -12 16 -7 -2 -13 3 -13
11 0 8 8 15 18 17 11 1 22 6 25 10 4 4 -1 4 -10 1 -31 -11 -20 20 19 58 20 20
43 33 50 31 8 -3 13 2 13 13 0 19 76 91 97 91 7 0 13 6 13 14 0 7 14 25 32 40
l32 26 -57 0 c-31 0 -57 5 -57 10 0 6 -5 10 -11 10 -5 0 -7 -5 -4 -10 4 -6 -5
-10 -22 -9 -15 1 -40 -3 -55 -9 -23 -9 -28 -9 -28 2 0 9 -10 13 -29 12 -27 -2
-29 0 -27 30 4 44 11 51 56 59 22 4 42 10 44 13 2 4 75 4 163 1 88 -4 166 -2
176 3z m1242 -129 c19 -6 29 -16 29 -27 -2 -15 0 -16 15 -2 14 13 21 12 58 -5
23 -10 45 -24 49 -31 4 -7 3 -8 -4 -4 -7 4 -12 1 -12 -8 0 -8 6 -13 13 -10 8
3 13 -5 15 -21 2 -30 -50 -81 -80 -79 -10 1 -18 -3 -18 -7 0 -9 15 -13 35 -10
6 1 -4 -11 -21 -27 -25 -24 -38 -28 -76 -27 -41 2 -46 0 -43 -17 3 -14 -5 -23
-27 -32 -19 -9 -26 -16 -19 -20 7 -4 18 -2 26 4 8 7 15 9 15 4 0 -5 -14 -18
-30 -29 -16 -11 -30 -23 -30 -26 0 -3 30 -14 67 -25 36 -10 68 -25 71 -33 3
-9 0 -11 -8 -6 -9 5 -11 4 -6 -4 6 -9 11 -9 22 0 28 23 104 -28 86 -58 -4 -7
-16 -11 -26 -10 -10 1 -21 -4 -24 -12 -3 -8 0 -11 7 -7 6 4 11 2 11 -4 0 -6 4
-8 10 -5 6 3 7 -1 3 -10 -4 -11 -8 -13 -13 -5 -4 6 -11 10 -16 8 -14 -4 -78
24 -90 41 -8 10 -13 11 -18 2 -6 -9 -11 -9 -22 0 -8 6 -14 8 -14 4 0 -4 -7 -1
-17 6 -9 8 -19 13 -22 11 -3 -1 -26 1 -51 5 -25 4 -51 6 -57 5 -7 -2 -13 2
-13 7 0 5 -10 11 -22 13 -13 2 -22 9 -21 15 2 7 -4 10 -12 7 -9 -4 -15 0 -15
10 0 10 -6 13 -15 10 -17 -7 -21 11 -5 21 6 4 7 11 4 17 -5 7 0 9 14 6 19 -5
20 -3 12 12 -13 25 -13 43 1 35 14 -9 50 25 42 39 -4 6 1 5 10 -2 14 -12 15
-11 11 11 -3 21 -1 24 16 20 12 -3 20 0 20 6 0 7 -4 9 -10 6 -5 -3 -10 -4 -10
-1 0 3 16 12 35 20 19 8 35 19 35 25 0 5 14 12 30 16 20 4 30 13 30 25 0 22
16 35 25 20 4 -7 14 -3 26 11 10 12 19 23 19 24 0 0 -44 2 -97 4 -54 1 -103 7
-110 13 -7 5 -17 7 -23 3 -5 -3 -10 -2 -10 4 0 6 -11 13 -23 17 -19 4 -23 11
-19 29 4 24 27 40 42 30 4 -3 10 1 13 8 5 14 180 6 232 -10z m-1115 -274 c0
-5 4 -7 10 -4 6 3 7 -1 4 -9 -8 -20 -6 -20 -27 4 -14 17 -14 20 -2 20 8 0 15
-5 15 -11z m1130 -4 c0 -2 -10 -10 -22 -16 -21 -11 -22 -11 -9 4 13 16 31 23
31 12z m-1410 -15 c0 -5 -5 -10 -11 -10 -5 0 -7 5 -4 10 3 6 8 10 11 10 2 0 4
-4 4 -10z m-3160 -418 c0 -5 -9 -17 -20 -27 -22 -20 -26 -14 -10 16 11 19 30
26 30 11z m134 -92 c19 0 20 -10 3 -34 -10 -13 -20 -16 -35 -12 -22 7 -28 30
-15 62 6 15 7 16 18 0 7 -9 20 -16 29 -16z m-164 0 c0 -5 -4 -10 -10 -10 -5 0
-10 5 -10 10 0 6 5 10 10 10 6 0 10 -4 10 -10z m180 -68 c0 -17 -49 -54 -64
-49 -18 7 -22 27 -6 27 6 0 10 7 10 15 0 10 10 15 30 15 17 0 30 -4 30 -8z
m140 -32 c6 -11 9 -20 7 -20 -2 0 -12 9 -22 20 -10 11 -13 20 -7 20 6 0 16 -9
22 -20z m-1829 -39 c-10 -7 -11 -13 -2 -27 9 -17 10 -17 11 -1 0 9 5 17 11 17
5 0 7 5 4 11 -5 7 8 8 42 4 69 -9 76 -11 93 -17 8 -4 28 -9 43 -12 23 -6 27
-11 22 -29 -6 -21 -5 -21 9 -4 9 12 16 14 21 8 3 -6 15 -11 26 -11 10 0 19 -5
19 -11 0 -5 4 -8 8 -5 5 3 19 -4 31 -15 12 -12 29 -18 37 -15 8 3 14 -1 14 -9
0 -16 27 -45 42 -45 6 0 0 8 -12 18 -22 18 -22 18 -1 19 12 1 21 -2 21 -8 0
-5 3 -8 8 -8 4 1 9 1 12 -1 3 -1 16 -3 30 -6 41 -7 50 -13 50 -30 0 -9 8 -23
18 -31 9 -8 12 -12 7 -9 -6 2 -17 1 -25 -5 -13 -7 -13 -9 0 -9 9 0 24 -9 33
-21 18 -20 18 -21 0 -35 -10 -7 -22 -14 -26 -14 -5 0 -5 -5 -2 -10 4 -6 -8 -8
-32 -5 -21 4 -47 7 -58 9 -11 1 -34 10 -52 19 -18 10 -39 17 -47 17 -22 0 -86
32 -86 43 0 5 -9 7 -19 4 -11 -3 -28 1 -38 8 -24 16 -155 55 -187 55 -14 0
-26 5 -26 10 0 6 -5 10 -11 10 -5 0 -8 -4 -5 -9 3 -5 -7 -11 -22 -14 -15 -3
-36 -14 -48 -25 -12 -11 -29 -22 -40 -24 -13 -2 -18 -12 -19 -33 0 -19 -5 -29
-12 -27 -7 1 -13 -5 -13 -13 0 -17 -12 -19 -26 -5 -8 8 -14 7 -22 -3 -9 -11
-7 -13 10 -13 11 1 23 -5 26 -13 3 -9 0 -11 -7 -6 -8 4 -11 2 -9 -8 4 -20 -56
-75 -69 -62 -5 6 -8 17 -6 25 3 10 0 9 -7 -3 -9 -13 -8 -21 4 -33 20 -19 22
-63 3 -56 -4 1 -12 -10 -18 -25 -9 -25 -12 -26 -23 -11 -8 11 -17 14 -26 8 -8
-5 -18 -6 -22 -4 -12 7 -49 -21 -40 -31 4 -5 2 -5 -4 -2 -6 4 -10 19 -8 34 2
16 1 22 -2 16 -11 -25 -24 -12 -20 20 5 36 26 87 36 87 4 0 13 15 20 33 17 43
40 68 54 60 6 -4 5 1 -3 10 -12 15 -11 17 5 17 14 0 16 2 6 9 -10 6 -8 14 11
37 13 16 30 40 36 52 9 16 19 22 32 19 16 -4 17 -2 9 14 -9 15 -3 27 31 64 23
25 45 42 51 39 5 -3 14 -1 21 4 17 14 44 20 97 21 29 0 40 -2 31 -8z m1829
-11 c0 -5 -4 -10 -10 -10 -5 0 -10 5 -10 10 0 6 5 10 10 10 6 0 10 -4 10 -10z
m20 -35 c0 -8 -9 -19 -20 -25 -15 -8 -20 -8 -20 3 0 14 19 37 32 37 4 0 8 -7
8 -15z m-2200 -469 c0 -3 -4 -8 -10 -11 -5 -3 -10 -1 -10 4 0 6 5 11 10 11 6
0 10 -2 10 -4z m5160 -137 c0 -5 11 -9 24 -9 23 0 36 -21 36 -60 0 -23 -54
-42 -117 -41 -36 0 -68 -6 -94 -19 -44 -23 -65 -25 -72 -7 -4 9 -8 9 -14 1 -5
-7 -59 -14 -133 -17 -150 -8 -278 -32 -315 -59 -64 -48 -137 -113 -154 -137
-12 -17 -24 -50 -27 -73 -3 -23 -7 -46 -10 -50 -3 -4 1 -8 8 -9 9 0 10 -2 1
-5 -7 -3 -9 -12 -6 -21 4 -10 2 -14 -4 -10 -6 4 -13 -3 -16 -15 -4 -12 -9 -19
-13 -15 -4 3 -21 0 -40 -8 -28 -11 -33 -11 -38 1 -3 8 -13 14 -21 14 -14 0
-16 11 -13 70 2 38 6 70 11 70 4 0 7 13 7 28 0 16 9 38 20 50 11 12 20 23 20
26 0 20 192 176 217 176 5 0 14 5 21 12 6 6 17 13 24 14 7 2 44 12 83 23 38
12 97 24 132 27 41 4 60 11 57 18 -3 7 8 17 23 23 35 13 403 15 403 2z m-802
-374 c-3 -3 -9 2 -12 12 -6 14 -5 15 5 6 7 -7 10 -15 7 -18z m1756 -321 c9 -3
16 -12 16 -20 0 -8 4 -14 8 -14 4 0 18 -21 30 -46 21 -43 49 -56 46 -20 -1 11
6 16 25 15 17 -1 20 -3 9 -6 -22 -6 -23 -19 -3 -27 8 -3 15 -17 15 -32 0 -21
-4 -25 -20 -21 -13 3 -20 0 -20 -9 0 -17 -22 -18 -38 -2 -9 9 -12 8 -12 -5 0
-20 42 -46 48 -28 7 22 21 10 33 -29 15 -49 4 -63 -23 -30 -23 28 -23 31 -2
-40 6 -22 -20 -29 -30 -7 -5 10 -7 10 -12 0 -3 -7 -14 -13 -25 -13 -10 0 -19
-6 -19 -13 0 -8 -8 -21 -18 -30 -17 -15 -20 -14 -46 13 -33 35 -42 37 -51 10
-3 -11 -10 -20 -15 -20 -5 0 -14 -9 -20 -19 -7 -15 -6 -24 8 -39 22 -25 82
-38 82 -17 0 20 -19 29 -34 16 -18 -15 -39 9 -26 29 7 12 12 12 22 2 6 -6 25
-12 40 -12 23 0 28 -4 28 -25 0 -14 -4 -25 -10 -25 -15 0 -12 -26 4 -39 11 -9
17 -9 27 1 10 11 16 10 36 -10 29 -29 29 -32 -4 -32 -24 -1 -26 -2 -10 -11 9
-6 15 -14 12 -19 -3 -5 4 -27 16 -49 20 -39 20 -41 2 -65 -10 -14 -23 -26 -30
-26 -6 0 -18 -9 -26 -20 -11 -16 -16 -18 -25 -7 -6 7 -7 18 -2 26 9 16 3 41
-11 41 -5 0 -9 -8 -9 -18 0 -10 -5 -23 -12 -30 -9 -9 -8 -12 4 -12 11 0 18
-13 22 -44 l7 -44 47 15 c26 9 50 21 55 27 5 8 10 7 16 -3 5 -7 14 -10 20 -7
6 4 73 7 149 7 150 -1 195 -11 226 -53 9 -13 14 -16 10 -8 -7 13 -5 13 9 1 9
-7 14 -18 10 -24 -3 -5 -1 -7 4 -4 6 4 16 0 23 -8 7 -8 9 -15 4 -15 -5 0 -1
-5 9 -11 9 -5 17 -15 17 -21 0 -7 11 -23 24 -37 51 -55 136 -255 132 -311 -1
-16 1 -27 5 -24 4 2 9 -28 11 -67 2 -39 0 -73 -4 -76 -5 -2 -8 -9 -8 -14 0 -6
4 -8 9 -5 5 4 8 -20 8 -53 -1 -33 -5 -57 -9 -55 -5 3 -8 -4 -8 -16 0 -32 -48
-120 -66 -120 -10 0 -14 -6 -11 -14 8 -20 -18 -40 -43 -33 -11 3 -18 2 -15 -3
6 -9 -33 -61 -43 -58 -4 1 -18 -4 -30 -11 -13 -7 -26 -10 -29 -7 -4 3 -12 1
-19 -5 -19 -15 -54 -20 -186 -24 -75 -3 -118 0 -118 6 0 6 -5 7 -12 3 -6 -4
-52 -9 -102 -11 -77 -3 -98 0 -138 19 -27 12 -48 28 -48 35 0 8 -10 18 -22 23
-21 8 -21 9 -3 10 11 0 27 4 34 9 12 8 10 12 -12 22 -14 6 -24 16 -21 21 3 4
17 -1 31 -12 28 -22 48 -25 58 -10 4 6 -1 7 -11 3 -13 -5 -15 -3 -9 7 6 10 4
12 -8 7 -9 -3 -19 -1 -23 5 -5 7 -2 8 6 3 8 -5 11 -3 8 6 -3 8 -14 14 -25 13
-11 0 -20 5 -20 10 0 6 19 11 41 11 23 0 46 4 53 8 15 10 85 -2 77 -14 -5 -8
47 -14 91 -10 15 1 17 -1 7 -11 -14 -14 -16 -38 -2 -38 5 0 7 6 4 14 -9 25 18
31 141 31 95 0 123 -3 132 -15 11 -13 12 -12 13 8 0 24 19 29 39 10 11 -11 13
-10 8 4 -4 12 -2 15 9 11 10 -4 17 2 21 17 l6 24 8 -22 c5 -12 13 -22 19 -22
6 0 8 4 5 10 -3 6 1 7 9 4 9 -3 13 -10 10 -15 -3 -5 1 -6 9 -3 39 14 -9 57
-55 49 -13 -3 -43 -8 -68 -11 -25 -3 -54 -8 -65 -10 -28 -6 -232 -15 -220 -10
6 3 37 7 69 11 41 5 55 10 45 16 -12 8 -12 10 1 19 8 5 23 10 33 10 10 0 17 6
16 13 -4 29 3 39 31 48 17 6 30 15 30 20 0 5 -11 4 -25 -1 -44 -17 -77 -21
-207 -27 -135 -6 -171 1 -216 41 -25 22 -82 108 -86 128 -7 41 -19 58 -40 58
-15 0 -22 6 -23 20 -2 18 0 19 13 5 21 -20 22 -19 16 10 -2 15 -9 22 -16 18
-6 -4 -6 -1 2 9 10 12 9 18 -4 28 -8 8 -13 22 -10 33 2 10 2 16 -1 13 -3 -3
-14 5 -23 17 -23 28 -37 16 -16 -15 22 -30 20 -48 -4 -48 -27 0 -25 -28 3 -40
12 -5 16 -9 10 -9 -7 -1 -13 -11 -13 -23 l0 -22 -21 21 c-18 18 -25 19 -41 10
-18 -12 -29 -5 -41 28 -3 6 -8 6 -13 2 -4 -4 -3 -16 3 -26 18 -28 5 -32 -23
-8 -14 12 -27 37 -30 59 -7 40 -34 54 -34 17 0 -11 -4 -17 -11 -14 -5 4 -8 12
-6 18 5 14 -30 89 -47 99 -6 4 -21 8 -33 8 -13 0 -23 6 -23 15 0 8 -10 23 -22
35 l-22 20 22 0 c19 0 20 3 11 27 -6 16 -6 30 0 36 14 14 31 -1 31 -29 0 -13
5 -24 10 -24 6 0 10 16 10 35 0 48 23 45 40 -5 17 -53 22 -45 10 16 -9 46 -8
50 16 72 14 12 23 26 20 31 -4 5 3 7 14 4 11 -3 20 -12 20 -20 0 -11 7 -13 25
-9 23 6 25 3 25 -24 0 -16 5 -30 10 -30 6 0 10 10 10 21 0 19 2 20 17 8 13
-11 17 -11 20 -1 3 6 9 9 15 6 7 -5 9 2 6 20 -4 17 -1 25 6 23 6 -2 13 -12 14
-23 4 -19 52 -68 59 -60 2 2 -2 15 -8 30 -14 31 -6 44 16 26 13 -11 14 -10 10
3 -4 8 -2 18 4 22 6 3 11 0 11 -7 0 -9 3 -9 10 2 5 8 10 11 10 7 0 -17 54 35
55 53 1 11 -1 18 -3 15 -3 -3 -12 1 -21 8 -14 10 -14 10 -3 -5 9 -11 10 -18 2
-23 -6 -3 -8 -11 -5 -16 9 -14 -11 -11 -22 4 -20 25 -24 65 -7 81 8 9 20 16
25 16 5 0 9 7 9 15 0 8 5 15 12 15 7 0 5 7 -5 18 -9 9 -16 33 -17 52 -1 19 -2
47 -2 61 -1 23 -5 26 -31 25 -24 -1 -34 5 -44 24 -15 29 -17 13 -3 -24 5 -14
6 -43 1 -68 l-8 -43 -8 38 c-4 20 -11 37 -15 37 -4 0 -28 16 -53 35 -50 38
-62 43 -54 21 3 -8 0 -17 -8 -20 -7 -2 -15 -15 -18 -28 -3 -21 -5 -21 -16 10
-7 17 -15 32 -17 32 -2 0 -13 -9 -25 -21 l-21 -21 -19 43 c-11 23 -28 48 -38
55 -10 7 -21 26 -24 42 -3 15 -15 39 -26 53 -15 19 -22 21 -32 12 -10 -10 -15
-9 -25 5 -27 35 -9 77 22 51 11 -9 18 -9 26 -1 9 9 9 12 0 12 -6 0 -9 6 -6 14
3 8 1 17 -4 20 -6 3 -13 -1 -16 -9 -5 -13 -10 -14 -26 -5 -16 9 -25 8 -37 -1
-13 -12 -13 -14 2 -19 15 -5 15 -7 1 -19 -13 -11 -17 -10 -23 5 -3 11 -17 32
-30 47 -13 16 -23 35 -23 42 0 20 27 8 33 -14 3 -13 14 -19 33 -19 33 0 45 14
38 43 -4 15 4 25 32 40 35 19 36 19 50 0 13 -17 14 -16 14 18 0 20 3 37 6 37
4 0 22 -13 41 -30 18 -16 42 -30 52 -30 17 0 61 -42 61 -59 0 -13 36 -42 43
-34 10 9 9 53 -1 53 -13 0 -32 48 -26 65 4 8 1 15 -5 15 -20 0 -11 27 14 44
18 12 24 23 20 35 -3 10 1 24 10 31 13 10 19 10 33 -4 23 -20 36 -20 52 -1 7
8 17 12 23 8 6 -4 8 0 5 9 -5 11 0 14 18 10 16 -3 23 -10 20 -18 -3 -9 2 -14
14 -14 11 0 20 -5 20 -10 0 -6 6 -10 13 -9 27 3 46 -2 60 -16 13 -13 16 -11
21 11 5 19 1 30 -14 42 l-21 17 21 23 c22 23 29 26 54 16z m-94 -40 c0 -16
-16 -19 -25 -4 -8 13 4 32 16 25 5 -4 9 -13 9 -21z m-280 6 c0 -5 -8 -10 -17
-10 -15 0 -16 2 -3 10 19 12 20 12 20 0z m-1132 -39 c9 -25 8 -29 -4 -24 -8 3
-14 9 -14 13 0 5 -3 15 -6 24 -3 9 -2 16 4 16 6 0 15 -13 20 -29z m122 9 c0
-5 -4 -10 -10 -10 -5 0 -10 5 -10 10 0 6 5 10 10 10 6 0 10 -4 10 -10z m457
-22 c-3 -8 -6 -5 -6 6 -1 11 2 17 5 13 3 -3 4 -12 1 -19z m248 2 c3 -5 1 -10
-4 -10 -6 0 -11 5 -11 10 0 6 2 10 4 10 3 0 8 -4 11 -10z m-342 -42 c9 -18 14
-35 11 -37 -8 -8 -44 32 -44 51 0 28 16 21 33 -14z m342 3 c3 -5 1 -12 -5 -16
-5 -3 -10 1 -10 9 0 18 6 21 15 7z m-858 -23 c-3 -8 -6 -5 -6 6 -1 11 2 17 5
13 3 -3 4 -12 1 -19z m1153 -19 c7 -11 8 -24 4 -27 -4 -4 -9 -1 -11 6 -3 6
-11 12 -19 12 -8 0 -14 7 -14 15 0 22 28 18 40 -6z m-710 -35 c0 -32 -6 -30
-18 5 -9 25 -8 29 4 24 8 -3 14 -16 14 -29z m458 9 c-5 -25 -28 -28 -28 -4 0
12 6 21 16 21 9 0 14 -7 12 -17z m-388 -12 c0 -5 3 -23 7 -41 5 -26 3 -31 -7
-25 -8 5 -17 2 -24 -8 -11 -14 -14 -14 -34 1 -16 13 -19 21 -12 32 6 10 10 11
10 3 0 -7 10 -13 21 -13 18 0 21 5 17 30 -3 20 0 30 9 30 7 0 13 -4 13 -9z
m-130 -10 c0 -6 -4 -13 -10 -16 -5 -3 -10 1 -10 9 0 9 5 16 10 16 6 0 10 -4
10 -9z m350 -6 c0 -8 -9 -15 -20 -15 -11 0 -20 7 -20 15 0 8 9 15 20 15 11 0
20 -7 20 -15z m-161 -19 c9 -10 9 -16 1 -21 -29 -18 21 -153 57 -154 15 -1 6
-31 -13 -47 -15 -12 -22 -90 -10 -117 16 -34 -37 1 -61 41 l-22 37 -1 -37 c0
-21 4 -38 9 -38 5 0 11 -9 14 -19 5 -19 4 -19 -27 0 -17 10 -34 29 -37 41 -4
18 -11 22 -32 20 -15 -2 -27 2 -27 9 0 6 6 9 14 6 20 -8 28 32 10 50 -8 9 -16
14 -18 12 -1 -2 -13 -21 -25 -41 -25 -42 -41 -49 -41 -18 0 14 7 20 21 20 11
0 17 5 14 10 -3 6 -14 10 -24 10 -9 0 -26 6 -36 14 -15 11 -17 17 -7 28 14 17
6 28 -20 28 -26 0 -62 35 -55 54 4 9 16 16 27 16 22 0 27 -15 9 -26 -8 -4 -7
-9 2 -15 23 -14 30 -10 24 14 -5 18 0 26 21 37 15 8 37 13 49 12 16 -2 25 3
29 15 3 11 4 8 3 -7 -3 -22 1 -25 30 -27 18 -1 33 3 33 8 0 5 7 9 15 9 8 0 15
-4 15 -10 0 -5 3 -10 8 -10 4 0 8 17 8 38 0 64 18 89 43 58z m301 -6 c0 -11
-4 -20 -10 -20 -5 0 -10 9 -10 20 0 11 5 20 10 20 6 0 10 -9 10 -20z m-220
-23 c0 -12 9 -30 20 -40 11 -9 20 -26 20 -37 0 -28 30 -38 46 -15 7 10 11 23
7 29 -3 6 4 1 16 -11 11 -12 21 -29 21 -37 0 -8 5 -18 11 -22 8 -4 7 -9 -2
-15 -21 -13 -29 -11 -29 8 0 14 -2 15 -12 4 -10 -11 -10 -14 0 -18 6 -3 12
-12 12 -21 0 -20 29 -52 47 -52 10 0 12 6 8 21 -5 14 0 27 14 40 12 11 21 15
21 9 0 -5 7 -10 15 -10 18 0 20 17 3 23 -10 3 -10 7 -1 17 9 10 15 6 27 -19
19 -36 24 -37 42 -14 15 21 12 24 49 -52 16 -33 33 -66 38 -73 6 -7 12 -24 13
-38 4 -36 -19 -25 -32 15 -9 28 -12 30 -23 17 -10 -12 -11 -16 -1 -16 7 0 10
-7 7 -15 -4 -8 -2 -17 3 -20 14 -9 12 -25 -3 -25 -18 0 -37 59 -30 91 2 15 0
29 -5 33 -15 9 -35 -49 -30 -89 3 -24 0 -35 -9 -35 -8 0 -13 12 -13 28 0 33
-16 52 -43 52 -15 0 -18 5 -13 24 3 14 2 28 -4 31 -5 3 -10 -1 -10 -9 0 -18
-16 -21 -26 -5 -3 6 -15 9 -25 6 -14 -4 -19 0 -19 17 0 11 -13 32 -30 46 -16
14 -30 33 -30 42 0 11 -8 18 -19 18 -13 0 -23 11 -31 36 -7 20 -18 48 -26 62
-10 20 -11 28 -1 34 20 13 27 9 27 -15z m118 4 c3 -8 -1 -12 -9 -9 -7 2 -15
10 -17 17 -3 8 1 12 9 9 7 -2 15 -10 17 -17z m842 -101 c0 -11 -7 -20 -15 -20
-15 0 -21 21 -8 33 12 13 23 7 23 -13z m70 -10 c0 -5 -4 -10 -10 -10 -5 0 -10
5 -10 10 0 6 5 10 10 10 6 0 10 -4 10 -10z m-94 -34 c8 -8 14 -23 13 -33 0
-15 -2 -14 -11 5 -6 12 -15 22 -20 22 -4 0 -8 5 -8 10 0 14 9 12 26 -4z m51
-18 c-3 -8 -6 -5 -6 6 -1 11 2 17 5 13 3 -3 4 -12 1 -19z m-1320 6 c-3 -3 -12
-4 -19 -1 -8 3 -5 6 6 6 11 1 17 -2 13 -5z m-25 -36 c8 -13 20 -38 26 -56 10
-30 9 -34 -11 -42 -28 -10 -43 7 -52 61 -10 59 10 79 37 37z m368 -24 c0 -8
-4 -12 -10 -9 -5 3 -10 13 -10 21 0 8 5 12 10 9 6 -3 10 -13 10 -21z m995 -44
c3 -5 1 -10 -4 -10 -6 0 -11 5 -11 10 0 6 2 10 4 10 3 0 8 -4 11 -10z m-1242
-39 c2 -11 -3 -25 -13 -34 -17 -14 -18 -13 -18 19 0 37 22 48 31 15z m462 -41
c3 -5 -1 -10 -9 -10 -9 0 -16 5 -16 10 0 6 4 10 9 10 6 0 13 -4 16 -10z m343
-21 c4 -24 3 -24 -12 -4 -19 24 -20 38 -3 33 6 -3 13 -15 15 -29z m-2921 -82
c13 5 15 1 9 -23 -4 -16 -12 -32 -17 -35 -6 -3 -17 -18 -25 -33 l-14 -28 35
31 c41 36 44 37 60 14 11 -15 14 -15 34 -1 43 30 82 -3 46 -38 -8 -9 -15 -22
-15 -30 0 -12 4 -12 25 2 23 15 25 15 31 0 3 -9 1 -23 -6 -31 -10 -12 -9 -15
4 -15 9 0 16 3 16 8 0 4 9 13 21 20 19 12 20 11 14 -8 -5 -15 -1 -26 12 -35
17 -13 17 -14 -1 -28 -12 -9 -15 -16 -8 -21 6 -3 13 -2 17 4 11 17 32 11 38
-11 4 -15 11 -20 21 -16 23 9 20 -6 -9 -39 -23 -27 -17 -50 7 -26 12 12 41 4
32 -9 -7 -11 -6 -11 35 1 27 7 32 7 23 -2 -17 -17 -15 -38 3 -38 10 0 15 -11
16 -32 3 -61 4 -66 12 -74 4 -4 7 2 7 14 0 15 6 22 20 22 11 0 20 6 20 13 0 6
5 4 11 -6 8 -13 7 -22 -1 -32 -8 -10 -8 -19 0 -34 14 -27 17 -26 33 5 12 23
15 24 26 10 11 -13 10 -23 -3 -56 -20 -51 -20 -50 6 -47 15 1 24 -5 29 -23 6
-23 7 -23 8 8 1 34 21 46 21 12 0 -27 18 -25 30 3 l9 22 0 -22 c1 -12 11 -31
23 -43 12 -11 16 -20 10 -20 -17 0 -15 -29 2 -36 8 -3 20 -19 26 -35 7 -16 17
-29 22 -29 6 0 6 6 -1 14 -9 11 -9 16 0 22 7 4 15 2 17 -4 2 -7 13 -12 23 -12
11 0 17 -4 14 -10 -3 -5 -2 -10 4 -10 5 0 11 6 14 13 2 6 7 -2 11 -20 9 -37
32 -49 56 -28 19 17 30 11 30 -17 0 -11 7 -18 19 -18 10 0 21 -9 24 -21 5 -17
9 -19 26 -10 15 8 23 8 33 -2 7 -7 28 -20 46 -28 17 -7 32 -19 32 -26 0 -8 10
-11 29 -7 16 3 31 2 35 -4 9 -14 -5 -73 -15 -66 -11 6 -11 1 -3 -20 7 -19 24
-21 24 -3 0 15 54 67 69 67 19 0 20 -31 1 -42 -17 -11 -17 -13 -2 -25 16 -13
15 -14 -3 -11 -15 2 -30 -11 -57 -51 -44 -65 -63 -78 -85 -59 -14 11 -17 11
-21 -1 -3 -10 -6 -10 -12 -1 -5 8 -16 6 -41 -9 -25 -15 -36 -17 -46 -9 -10 8
-20 8 -38 0 -21 -10 -25 -9 -25 3 0 20 -17 19 -28 -2 -6 -9 -16 -14 -25 -10
-9 3 -19 2 -22 -3 -10 -16 -21 -11 -35 15 -7 13 -17 22 -22 19 -4 -3 -6 -9 -3
-14 8 -12 -5 -40 -19 -40 -14 0 -38 38 -31 50 3 5 1 11 -4 14 -5 3 -12 -10
-15 -28 -6 -33 -8 -34 -36 -26 -22 6 -34 5 -44 -6 -17 -16 -36 -19 -36 -4 0 6
-13 10 -29 10 -19 0 -35 8 -44 20 -13 19 -15 19 -21 4 -4 -11 -14 -15 -31 -12
-14 3 -25 0 -26 -6 0 -6 -5 -1 -11 11 -8 17 -19 21 -54 21 -24 0 -44 -4 -44
-9 0 -5 -4 -9 -10 -9 -5 0 -11 15 -11 33 -1 17 -3 24 -6 15 -2 -10 -11 -18
-19 -18 -8 0 -13 -4 -10 -9 3 -5 -1 -11 -9 -15 -10 -4 -17 6 -25 37 -16 62
-18 65 -19 30 -1 -22 -6 -33 -16 -33 -8 0 -15 -4 -15 -9 0 -5 -13 -3 -30 5
-21 11 -30 23 -30 40 0 14 -4 22 -10 19 -5 -3 -10 -15 -10 -26 0 -26 -12 -24
-44 7 -25 26 -26 26 -26 5 0 -24 -4 -25 -30 -11 -15 8 -18 17 -13 47 4 26 3
34 -5 29 -7 -4 -12 -18 -12 -32 0 -13 -4 -24 -10 -24 -5 0 -10 -7 -10 -15 0
-8 -5 -15 -11 -15 -6 0 -8 9 -4 20 4 14 2 20 -9 20 -8 0 -18 -5 -21 -10 -9
-14 -56 -1 -81 22 -21 18 -21 18 -35 -3 -14 -20 -16 -20 -31 -5 -9 9 -23 14
-30 11 -8 -3 -18 7 -26 27 -12 31 -14 32 -27 14 -15 -20 -37 -14 -29 9 4 9 -3
15 -23 17 -18 2 -29 10 -31 23 -2 11 -35 49 -73 85 -45 42 -69 73 -69 87 0 12
-4 25 -10 28 -6 4 -10 -5 -10 -20 0 -17 -5 -25 -12 -22 -7 2 -12 16 -10 31 1
14 -2 26 -8 26 -5 0 -10 -5 -10 -12 0 -6 -2 -9 -5 -6 -3 2 -1 26 4 51 5 30 5
47 -1 47 -6 0 -7 15 -3 38 4 20 9 48 11 60 3 30 7 34 28 26 10 -4 24 -24 33
-45 8 -22 16 -39 18 -39 1 0 16 7 33 15 20 10 29 21 26 30 -4 8 9 33 26 55 18
23 30 44 26 47 -8 8 -46 -27 -46 -43 0 -20 -41 -39 -50 -24 -5 7 -15 10 -24 7
-15 -6 -15 -3 0 31 9 20 23 60 31 87 17 55 40 89 29 43 -4 -17 -2 -28 4 -28 5
0 10 6 10 14 0 8 15 27 34 43 18 17 36 36 39 44 4 11 6 10 12 -3 5 -13 -11
-39 -57 -95 -34 -43 -69 -84 -76 -91 -7 -8 -9 -18 -6 -24 4 -6 11 -3 17 8 6
11 25 33 43 49 17 17 35 40 38 52 4 13 20 30 37 40 16 9 29 20 29 24 0 8 61
79 98 115 12 12 22 26 22 32 0 7 11 14 25 18 14 3 30 15 36 25 12 23 41 26 32
4 -3 -9 -18 -22 -33 -30 -15 -8 -30 -25 -34 -38 -3 -13 -17 -29 -31 -37 -13
-7 -28 -23 -31 -34 -4 -12 -15 -29 -25 -39 -11 -10 -19 -25 -19 -35 0 -13 3
-12 15 5 8 12 28 35 43 50 15 16 56 61 92 101 44 48 68 68 75 61 7 -7 -8 -28
-46 -64 -61 -58 -85 -104 -46 -84 28 14 127 120 127 135 0 7 -7 14 -15 18 -8
3 -15 13 -15 23 0 14 2 15 9 4 7 -11 16 -3 36 30 15 24 33 50 39 58 9 12 8 12
-11 2 -19 -10 -23 -9 -23 4 0 8 7 15 15 15 8 0 15 6 16 13 0 9 2 9 5 0 3 -7
12 -9 21 -6z m-175 -79 c-7 -7 -12 -8 -12 -2 0 6 3 14 7 17 3 4 9 5 12 2 2 -3
-1 -11 -7 -17z m3468 2 c-20 -13 -40 -13 -40 0 0 6 12 10 28 10 21 0 24 -2 12
-10z m-5760 -31 c8 -1 49 -8 90 -15 41 -8 133 -21 204 -29 71 -8 131 -17 135
-21 3 -3 -5 -14 -18 -25 l-23 -19 25 0 c14 0 29 -4 32 -10 3 -5 1 -10 -4 -10
-6 0 -11 -6 -11 -14 0 -19 -34 -29 -73 -22 -18 3 -63 8 -102 11 -38 4 -134 17
-213 31 -78 13 -146 23 -150 23 -32 -5 -52 3 -52 22 0 11 -4 18 -9 14 -5 -3
-12 -1 -16 5 -3 5 1 10 9 10 22 0 20 20 -1 20 -15 1 -13 3 5 13 12 7 20 16 17
19 -5 4 71 3 155 -3z m2238 -28 c-22 -29 -48 -40 -48 -22 0 10 50 50 63 51 5
0 -2 -13 -15 -29z m-1438 -16 c0 -8 7 -15 16 -15 10 0 14 -7 12 -22 -4 -28
-60 -58 -105 -56 -27 2 -33 6 -33 25 0 13 -5 23 -11 23 -5 0 -7 5 -4 10 3 6 1
10 -4 10 -21 0 -11 16 17 27 43 17 112 16 112 -2z m3830 -21 c14 -16 24 -74
14 -74 -13 0 -43 47 -44 68 0 26 12 29 30 6z m200 -55 c0 -24 -14 -24 -37 0
-17 19 -18 17 -20 -54 -1 -54 2 -75 12 -79 20 -7 27 23 10 41 -8 8 -13 19 -9
24 7 12 24 2 24 -16 0 -7 6 -15 14 -18 7 -3 16 -15 19 -26 4 -17 1 -21 -20
-21 -22 0 -25 -4 -21 -25 4 -18 1 -25 -10 -25 -8 0 -12 3 -9 6 4 4 -2 19 -13
34 -11 16 -20 33 -20 39 0 6 -5 11 -11 11 -7 0 -9 -11 -5 -30 7 -38 -20 -43
-30 -6 -5 20 -9 22 -18 13 -10 -9 -9 -18 5 -42 11 -16 19 -33 19 -37 0 -14
-40 -8 -66 8 -13 9 -27 14 -31 10 -3 -3 -1 -6 5 -6 6 0 16 -18 22 -41 9 -33
15 -40 31 -36 15 4 19 0 19 -19 0 -13 -4 -24 -10 -24 -5 0 -10 4 -10 9 0 5 -8
12 -18 15 -10 4 -25 22 -32 41 -8 19 -19 35 -26 35 -7 0 -16 9 -19 20 -3 11
-11 20 -16 20 -6 0 -7 -9 -4 -20 3 -11 2 -20 -2 -20 -25 0 -45 -134 -22 -142
8 -3 10 -17 5 -43 -6 -28 -10 -35 -16 -24 -6 8 -6 15 0 17 15 5 12 28 -4 42
-8 6 -16 23 -18 37 -2 15 -9 29 -17 31 -8 3 -11 0 -7 -6 3 -6 2 -14 -4 -17 -6
-4 -10 -3 -9 2 4 25 -3 35 -12 15 -5 -13 -14 -20 -20 -16 -8 4 -7 0 1 -15 9
-17 9 -26 -1 -37 -6 -8 -8 -14 -3 -15 5 0 -1 -4 -12 -9 -12 -5 -37 -5 -55 -2
-19 4 -49 7 -66 7 -18 0 -33 2 -33 5 0 4 -39 7 -87 9 -115 3 -147 17 -200 86
-5 6 -15 23 -23 39 -12 23 -12 30 -2 33 6 3 10 9 7 13 -3 5 5 14 17 21 13 7
26 16 29 22 7 10 69 -31 69 -45 0 -5 5 -6 12 -2 7 4 8 3 4 -5 -16 -25 15 -41
75 -39 41 2 55 5 49 13 -22 26 5 76 40 74 10 0 11 -2 3 -6 -20 -7 -15 -23 10
-33 12 -5 15 -9 7 -9 -8 0 -22 3 -30 9 -9 6 -17 5 -22 -3 -13 -21 -9 -29 15
-22 16 4 18 4 8 -3 -11 -8 -9 -12 10 -22 18 -10 24 -10 27 0 4 10 6 9 13 -1
10 -17 20 -8 22 20 1 20 27 31 27 12 0 -5 8 -17 17 -27 16 -16 16 -16 -6 -9
-16 5 -21 4 -17 -4 4 -6 20 -11 36 -11 15 0 31 -6 33 -12 4 -8 8 -4 12 10 8
24 21 29 28 10 3 -7 6 -4 6 7 0 11 -4 27 -9 35 -9 13 -12 13 -21 -2 -5 -10
-14 -18 -19 -18 -13 0 -13 33 0 46 7 7 6 20 -5 40 -28 54 -13 88 19 42 14 -20
20 -18 18 3 -1 4 8 5 18 2 11 -3 20 -11 20 -19 0 -7 4 -16 10 -19 17 -11 7 49
-12 69 -19 21 -26 82 -8 71 6 -3 10 -15 10 -26 0 -20 15 -26 25 -9 8 12 35 1
35 -15 0 -7 7 -15 15 -19 8 -3 15 -12 15 -21 0 -8 5 -15 10 -15 12 0 13 27 1
34 -10 7 -26 104 -18 112 8 8 71 -59 74 -79 2 -10 10 -28 19 -41 14 -22 14
-25 -3 -29 -11 -4 -9 -5 7 -4 18 1 26 9 28 26 2 13 -1 28 -7 34 -21 21 -12 34
19 29 17 -2 30 -10 30 -18 0 -8 7 -14 15 -14 11 0 15 13 17 48 2 71 2 72 18
82 18 12 60 -30 60 -61z m-2650 43 c0 -11 -22 -32 -32 -32 -5 0 -4 9 2 20 11
20 30 28 30 12z m2090 -12 c0 -5 -4 -10 -10 -10 -5 0 -10 5 -10 10 0 6 5 10
10 10 6 0 10 -4 10 -10z m-274 -47 c-10 -10 -19 5 -10 18 6 11 8 11 12 0 2 -7
1 -15 -2 -18z m-1878 -13 c-7 -10 -14 -17 -17 -15 -4 4 18 35 25 35 2 0 -1 -9
-8 -20z m2944 -32 c-2 -10 -8 -21 -13 -24 -13 -7 -11 -44 2 -44 5 0 7 -4 4
-10 -8 -13 -65 -13 -65 -1 0 5 -3 17 -7 27 -4 11 -2 15 7 12 22 -7 50 24 50
55 0 23 2 26 13 15 8 -7 12 -20 9 -30z m-727 22 c4 -6 -6 -10 -22 -9 -25 0
-26 1 -8 9 11 5 21 9 22 9 1 1 5 -3 8 -9z m635 -21 c0 -27 -30 -24 -31 4 0 21
-1 21 -9 2 -6 -15 -9 -16 -9 -4 -1 22 7 28 30 22 10 -3 19 -14 19 -24z m-550
12 c0 -5 3 -18 7 -28 6 -16 5 -16 -10 -4 -19 15 -23 41 -7 41 6 0 10 -4 10 -9z
m-2380 -11 c0 -15 -33 -50 -42 -44 -4 3 0 16 9 29 19 25 33 32 33 15z m2334
-25 c-6 -16 -24 -21 -24 -7 0 11 11 22 21 22 5 0 6 -7 3 -15z m-84 -57 c0 -10
-4 -18 -10 -18 -5 0 -10 6 -10 13 0 6 -3 23 -6 37 -5 24 -5 24 10 6 9 -11 16
-28 16 -38z m-2450 21 c0 -11 -4 -18 -10 -14 -5 3 -7 12 -3 20 7 21 13 19 13
-6z m2520 -14 c6 -8 10 -22 8 -32 -3 -14 -8 -11 -21 15 -18 32 -9 44 13 17z
m-2666 -59 c-3 -9 -10 -13 -15 -10 -6 3 -16 0 -24 -6 -12 -10 -15 -9 -15 4 0
9 8 16 19 16 11 0 23 5 26 11 10 15 17 5 9 -15z m98 -18 c-7 -7 -12 -8 -12 -2
0 14 12 26 19 19 2 -3 -1 -11 -7 -17z m2788 -24 c0 -8 7 -22 15 -30 20 -20 19
-34 -1 -34 -13 0 -15 -7 -10 -31 l6 -32 -21 27 c-20 26 -21 28 -3 47 13 15 15
22 6 31 -15 15 -16 38 -2 38 6 0 10 -7 10 -16z m-2735 -36 c9 -34 -8 -37 -29
-6 -12 16 -13 25 -4 35 14 17 24 7 33 -29z m3322 0 c-3 -8 -6 -5 -6 6 -1 11 2
17 5 13 3 -3 4 -12 1 -19z m-3447 -12 c0 -3 -4 -8 -10 -11 -5 -3 -10 -1 -10 4
0 6 5 11 10 11 6 0 10 -2 10 -4z m2094 -32 c3 -8 2 -12 -4 -9 -6 3 -10 10 -10
16 0 14 7 11 14 -7z m1123 -26 c-3 -8 -6 -5 -6 6 -1 11 2 17 5 13 3 -3 4 -12
1 -19z m-3487 8 c0 -3 -4 -8 -10 -11 -5 -3 -10 -1 -10 4 0 6 5 11 10 11 6 0
10 -2 10 -4z m306 -33 c-11 -11 -17 4 -9 23 7 18 8 18 11 1 2 -10 1 -21 -2
-24z m3504 22 c0 -8 -2 -15 -4 -15 -2 0 -6 7 -10 15 -3 8 -1 15 4 15 6 0 10
-7 10 -15z m-1409 -12 c13 -16 12 -17 -3 -4 -17 13 -22 21 -14 21 2 0 10 -8
17 -17z m-2280 -20 c-12 -20 -14 -14 -5 12 4 9 9 14 11 11 3 -2 0 -13 -6 -23z
m-281 -7 c0 -3 -4 -8 -10 -11 -5 -3 -10 -1 -10 4 0 6 5 11 10 11 6 0 10 -2 10
-4z m390 -2 c0 -3 -5 -14 -11 -25 -8 -16 -13 -18 -24 -9 -8 7 -19 9 -25 5 -5
-3 -10 1 -10 10 0 10 6 15 13 12 8 -3 20 -1 28 4 16 10 29 12 29 3z m2225 -19
c35 -36 31 -45 -5 -10 -16 16 -30 30 -30 32 0 8 11 1 35 -22z m1565 -11 c0 -8
-5 -12 -10 -9 -6 4 -8 11 -5 16 9 14 15 11 15 -7z m-1040 2 c0 -3 -4 -8 -10
-11 -5 -3 -10 -1 -10 4 0 6 5 11 10 11 6 0 10 -2 10 -4z m1107 -16 c3 -10 2
-11 -4 -4 -4 6 -15 14 -23 17 -11 5 -9 6 4 4 11 -1 21 -9 23 -17z m-1537 -54
c20 -25 2 -18 -28 10 -21 20 -22 24 -6 16 11 -6 26 -18 34 -26z m706 15 c-13
-21 6 -40 35 -36 16 2 27 0 25 -4 -3 -4 -20 -8 -38 -9 -30 -2 -33 0 -35 28 -1
16 2 30 8 30 6 0 8 -4 5 -9z m-3498 -26 c-6 -14 -15 -25 -20 -25 -5 0 -7 3 -5
8 2 4 7 15 10 25 4 9 11 17 16 17 7 0 6 -9 -1 -25z m73 -3 c-5 -10 -17 -24
-25 -32 -23 -18 -22 7 1 32 21 23 37 23 24 0z m3476 -48 c-9 -9 -28 6 -21 18
4 6 10 6 17 -1 6 -6 8 -13 4 -17z m-672 6 c8 -13 -5 -13 -25 0 -13 8 -13 10 2
10 9 0 20 -4 23 -10z m851 -37 c-11 -11 -17 4 -9 23 7 18 8 18 11 1 2 -10 1
-21 -2 -24z m-3706 13 c0 -3 -4 -8 -10 -11 -5 -3 -10 -1 -10 4 0 6 5 11 10 11
6 0 10 -2 10 -4z m3005 -64 c-3 -3 -11 0 -18 7 -9 10 -8 11 6 5 10 -3 15 -9
12 -12z m-3008 -22 c-1 -18 -8 -30 -16 -30 -8 0 -11 6 -7 16 3 9 6 22 6 30 0
8 4 14 10 14 5 0 8 -13 7 -30z m568 -15 c5 -19 6 -19 19 -2 7 9 16 17 20 17
13 0 5 -23 -11 -35 -16 -12 -13 -14 22 -21 22 -5 43 -8 48 -9 4 0 7 -3 7 -7 0
-5 0 -12 0 -16 0 -4 -10 -8 -22 -9 -11 -1 -25 -7 -29 -14 -9 -16 -43 -3 -36
14 3 8 -4 19 -15 26 -16 10 -23 10 -38 -4 -25 -23 -49 -15 -26 7 10 10 12 19
6 23 -9 5 -5 47 7 67 7 12 41 -14 48 -37z m-620 25 c3 -5 1 -10 -4 -10 -6 0
-11 5 -11 10 0 6 2 10 4 10 3 0 8 -4 11 -10z m4832 -12 c-3 -8 -6 -5 -6 6 -1
11 2 17 5 13 3 -3 4 -12 1 -19z m-1672 -16 c-3 -3 -11 0 -18 7 -9 10 -8 11 6
5 10 -3 15 -9 12 -12z m-3245 -71 c0 -18 -27 -37 -38 -26 -3 3 0 5 6 5 7 0 12
9 12 20 0 11 5 20 10 20 6 0 10 -9 10 -19z m80 9 c0 -5 -4 -10 -10 -10 -5 0
-10 5 -10 10 0 6 5 10 10 10 6 0 10 -4 10 -10z m139 -46 c-22 -24 -23 -26 -6
-38 17 -13 24 -46 9 -46 -13 0 -43 65 -37 81 5 14 46 38 54 32 3 -2 -6 -15
-20 -29z m2471 0 c0 -14 -12 -19 -23 -8 -9 9 4 35 14 28 5 -3 9 -12 9 -20z
m-2862 4 c7 -7 12 -21 12 -32 0 -16 3 -17 12 -8 21 21 30 13 27 -22 -2 -19 0
-38 4 -42 9 -9 38 16 32 27 -3 4 4 13 15 19 16 9 20 8 20 -5 0 -9 -7 -18 -15
-21 -19 -8 -20 -24 -1 -24 24 0 30 -22 11 -36 -10 -7 -22 -11 -26 -8 -11 6
-11 1 -3 -20 5 -13 9 -14 20 -5 8 6 21 9 29 5 19 -7 20 -35 1 -42 -8 -3 -12
-12 -9 -20 6 -16 33 -19 33 -4 0 6 7 10 16 10 11 0 13 -6 9 -19 -3 -11 -3 -31
1 -45 5 -21 9 -24 25 -16 17 10 17 8 4 -25 -8 -19 -15 -39 -15 -45 0 -20 19
-10 34 18 8 15 15 20 15 12 1 -8 -3 -22 -9 -30 -5 -9 -5 -19 2 -27 8 -10 6
-17 -7 -27 -10 -7 -15 -18 -11 -24 10 -17 -15 -92 -31 -92 -7 0 -13 8 -14 18
0 10 -3 12 -6 5 -5 -15 -33 -18 -33 -4 0 6 4 12 9 15 10 7 3 46 -9 46 -4 0
-10 10 -14 22 -4 18 -8 20 -18 10 -16 -16 -28 -15 -28 1 0 8 -16 30 -35 50
-40 41 -42 52 -17 66 15 9 15 10 0 11 -9 0 -18 -5 -20 -12 -3 -7 -12 -9 -23
-5 -17 7 -17 9 5 32 18 19 22 31 17 60 -3 19 -2 33 2 30 5 -2 11 7 14 20 2 14
0 28 -4 31 -5 3 -9 1 -9 -5 0 -17 -54 -62 -67 -56 -7 2 -13 -1 -13 -7 0 -6 -3
-8 -7 -5 -4 4 8 21 26 39 17 17 39 44 48 60 10 15 21 28 25 28 4 0 5 7 2 15
-7 16 -34 21 -34 5 0 -12 -60 -80 -71 -80 -12 0 17 64 32 69 20 6 35 24 44 50
5 18 2 24 -14 28 -12 3 -21 9 -21 14 0 13 24 11 38 -3z m869 6 c-3 -3 -12 -4
-19 -1 -8 3 -5 6 6 6 11 1 17 -2 13 -5z m2033 -59 c0 -9 -6 -18 -14 -21 -11
-4 -11 -10 -2 -30 6 -13 16 -22 23 -20 6 3 24 1 40 -4 19 -6 22 -9 9 -9 -11
-1 -27 -8 -37 -17 -16 -14 -18 -14 -29 6 -7 14 -19 20 -33 18 -12 -1 -28 1
-36 6 -8 5 -16 4 -20 -1 -9 -16 -68 -26 -76 -14 -4 7 3 11 17 11 33 0 46 11
44 39 0 13 5 26 13 29 8 3 11 0 7 -6 -6 -11 19 -42 34 -42 15 0 23 21 11 33
-20 20 -12 37 19 37 20 0 30 -5 30 -15z m-144 -21 c-4 -9 -1 -24 6 -32 11 -13
10 -15 -5 -9 -10 4 -23 7 -28 7 -13 0 -11 18 4 35 17 19 31 19 23 -1z m179
-24 c-27 -12 -35 -12 -35 0 0 6 12 10 28 9 24 0 25 -1 7 -9z m402 -46 c-3 -3
-12 -4 -19 -1 -8 3 -5 6 6 6 11 1 17 -2 13 -5z m-3002 -54 c-4 -12 -9 -19 -12
-17 -3 3 -2 15 2 27 4 12 9 19 12 17 3 -3 2 -15 -2 -27z m-337 -42 c-2 -13
-11 -24 -20 -26 -21 -4 -24 18 -6 36 19 19 30 14 26 -10z m274 -258 c-2 -22
-8 -37 -13 -34 -10 6 -12 57 -2 67 14 15 18 5 15 -33z m39 -43 c-8 -8 -11 -7
-11 4 0 9 3 19 7 23 4 4 9 2 11 -4 3 -7 -1 -17 -7 -23z m55 -23 c-6 -16 -26
-19 -26 -5 0 5 5 22 12 38 11 27 12 27 16 5 2 -13 1 -30 -2 -38z m-91 -23 c0
-29 -4 -41 -17 -44 -9 -3 -17 -2 -16 2 0 3 -1 9 -2 14 -1 4 -3 21 -4 37 -1 24
3 30 19 30 17 0 20 -7 20 -39z m125 -3 c0 -13 3 -34 6 -48 5 -24 5 -24 -10 -6
-18 22 -22 76 -6 76 6 0 10 -10 10 -22z m67 -110 c-3 -7 -5 -2 -5 12 0 14 2
19 5 13 2 -7 2 -19 0 -25z m143 -137 c0 -5 -7 -12 -16 -15 -22 -9 -24 -8 -24
9 0 8 9 15 20 15 11 0 20 -4 20 -9z m36 -86 c-4 -14 -13 -25 -21 -25 -21 0
-19 47 3 59 21 12 27 1 18 -34z m54 -66 c0 -17 -4 -28 -10 -24 -5 3 -10 17
-10 31 0 13 5 24 10 24 6 0 10 -14 10 -31z m77 -25 c12 -12 13 -20 5 -37 l-11
-22 0 22 c-1 12 -5 25 -11 28 -11 7 -14 25 -4 25 3 0 12 -7 21 -16z m217 -79
c-4 -8 -8 -15 -10 -15 -2 0 -4 7 -4 15 0 8 4 15 10 15 5 0 7 -7 4 -15z m-351
-31 c5 12 10 13 31 3 14 -7 26 -18 26 -24 0 -7 6 -13 13 -13 8 0 11 -16 10
-52 -3 -56 24 -112 60 -124 9 -3 17 -10 17 -15 0 -5 5 -9 11 -9 8 0 8 4 0 14
-6 7 -8 22 -5 32 6 15 4 17 -6 7 -14 -12 -43 -6 -35 8 3 4 12 6 20 2 10 -3 15
1 16 13 0 15 2 15 6 4 3 -8 10 -26 16 -40 6 -14 11 -29 11 -33 1 -5 9 -15 20
-22 11 -8 15 -19 10 -26 -5 -9 -2 -10 9 -6 9 3 16 3 16 -1 -1 -4 -1 -14 0 -21
2 -22 23 2 38 42 12 29 12 25 7 -38 -7 -100 -31 -153 -48 -108 -4 9 -1 20 6
25 11 6 11 8 0 8 -7 0 -15 -7 -18 -15 -4 -8 -10 -15 -16 -15 -5 0 -16 7 -24
15 -14 13 -13 15 5 15 11 0 23 4 26 10 3 6 -1 7 -9 4 -9 -3 -16 -2 -16 4 0 6
6 12 13 15 6 2 8 8 4 13 -4 5 -11 4 -15 -2 -4 -6 -18 -14 -32 -17 -35 -9 -61
-70 -57 -133 2 -35 7 -50 19 -52 9 -2 18 3 21 10 2 7 3 5 1 -5 -1 -9 5 -21 14
-27 10 -5 12 -10 6 -10 -6 0 -14 3 -18 7 -3 4 -13 8 -21 9 -11 2 -12 -3 -4
-23 13 -35 11 -40 -6 -17 -13 17 -14 18 -15 1 0 -10 -8 -21 -17 -24 -10 -4
-22 -13 -28 -20 -8 -11 -15 -8 -36 11 -23 21 -28 22 -41 10 -12 -12 -14 -11
-15 8 -1 12 -12 30 -25 40 -13 10 -17 17 -9 16 8 -2 14 9 17 32 2 19 5 58 8
85 5 44 3 53 -16 70 -12 10 -32 19 -44 21 -13 1 -28 5 -33 9 -6 3 -11 1 -11
-6 0 -7 -13 2 -29 19 -16 16 -32 28 -34 25 -3 -2 -8 1 -13 8 -4 8 -3 10 4 5 8
-5 10 2 5 25 -4 23 -3 30 5 25 6 -4 25 0 41 9 19 9 32 11 36 5 10 -17 25 -11
34 13 5 12 11 55 14 96 5 73 14 90 47 92 10 0 8 3 -5 9 -11 5 -15 9 -8 9 7 1
10 8 7 19 -4 9 3 4 14 -11 15 -22 21 -25 25 -13z m457 -9 c0 -14 -4 -25 -10
-25 -5 0 -10 11 -10 25 0 14 5 25 10 25 6 0 10 -11 10 -25z m-1295 -20 c21 -3
44 -9 50 -13 5 -4 28 -14 50 -21 210 -70 327 -184 378 -366 14 -50 28 -99 32
-110 5 -13 4 -16 -2 -7 -6 8 -9 -5 -9 -38 1 -27 5 -50 9 -50 5 0 5 -4 2 -10
-3 -5 0 -10 7 -10 11 0 11 -2 0 -8 -18 -12 -27 -66 -10 -57 7 4 2 -2 -11 -13
-13 -10 -21 -24 -17 -30 3 -5 -1 -13 -10 -16 -8 -3 -13 -10 -9 -15 3 -6 -1
-13 -9 -18 -8 -4 -16 -12 -17 -18 -2 -5 -10 -9 -18 -7 -9 2 -12 -2 -7 -13 3
-9 2 -13 -4 -10 -12 7 -51 -31 -42 -41 4 -4 1 -4 -6 0 -7 4 -24 0 -38 -9 -14
-9 -32 -14 -40 -11 -8 3 -14 1 -14 -3 0 -8 -180 -71 -215 -76 -5 -1 -12 -3
-15 -4 -3 -2 -18 -4 -35 -6 -16 -1 -52 -10 -80 -19 -27 -9 -60 -16 -73 -16
-19 0 -21 3 -13 19 8 14 7 19 -2 18 -6 0 -21 1 -32 2 -17 1 -18 3 -5 11 12 8
11 10 -7 10 -13 0 -23 5 -23 11 0 22 22 50 35 45 9 -3 12 2 10 17 -5 26 39 51
122 68 29 6 55 15 58 19 3 5 12 7 20 3 10 -3 15 1 15 13 0 11 4 15 8 9 9 -12
32 -18 32 -8 0 5 21 9 47 11 26 1 54 9 63 17 9 8 22 15 28 15 7 0 12 5 12 10
0 6 3 9 8 8 13 -5 77 40 100 71 18 24 22 43 22 98 0 37 -5 88 -11 113 -7 25
-12 52 -14 60 -4 30 -34 90 -45 90 -6 0 -8 5 -5 11 6 9 -15 32 -65 71 -13 9
-70 36 -128 58 -104 41 -107 42 -213 38 -108 -3 -108 -3 -143 -37 -20 -19 -38
-43 -42 -53 -3 -10 -13 -18 -21 -18 -9 0 -14 -3 -10 -6 3 -4 -8 -27 -24 -51
-73 -105 -75 -113 -68 -210 4 -48 5 -91 2 -96 -2 -4 -1 -6 4 -5 4 1 22 -5 38
-14 23 -12 50 -15 110 -12 102 6 105 6 105 15 0 4 11 6 25 5 14 -2 37 3 51 10
14 8 33 14 40 14 8 0 14 4 14 9 0 5 12 12 26 15 15 4 24 10 21 13 -3 3 0 12 8
20 18 17 20 74 3 91 -7 7 -24 12 -38 12 -14 0 -31 5 -38 12 -9 9 -12 9 -12 0
0 -7 -16 -12 -40 -12 -44 0 -46 -3 -25 -40 18 -31 19 -44 2 -37 -9 3 -12 -4
-9 -27 3 -30 1 -32 -30 -34 -18 -2 -34 -7 -36 -12 -5 -13 -32 -13 -32 0 0 6
-9 10 -20 10 -14 0 -20 7 -20 21 0 13 -4 18 -12 13 -7 -4 -8 -3 -4 5 4 6 2 18
-4 26 -8 10 -10 31 -5 65 6 44 12 55 46 79 21 16 36 30 34 33 -13 12 249 19
284 7 16 -6 50 -32 75 -59 25 -26 46 -46 48 -45 2 2 3 -35 3 -81 0 -46 -4 -84
-8 -84 -5 0 -6 -4 -3 -9 4 -5 2 -11 -3 -13 -5 -1 -11 -10 -13 -18 -5 -24 -72
-86 -118 -110 -47 -24 -193 -70 -222 -70 -10 0 -18 -5 -18 -11 0 -5 -5 -7 -11
-3 -7 4 -44 6 -83 5 -54 -2 -84 3 -121 19 -58 25 -135 85 -135 106 0 8 -5 14
-11 14 -5 0 -7 5 -4 10 4 6 -1 22 -10 36 -14 21 -16 43 -12 119 2 53 11 105
19 121 8 16 23 45 32 64 9 20 30 50 46 67 17 18 30 37 30 44 0 13 49 82 62 87
4 2 8 10 8 17 0 8 9 17 20 20 11 3 20 10 20 15 0 12 91 53 130 57 19 2 35 5
37 6 4 4 156 -2 198 -8z m1069 -1 c7 -18 0 -34 -15 -34 -5 0 -9 11 -9 25 0 28
15 34 24 9z m15 -193 c-3 -34 -5 -38 -20 -28 -10 6 -15 15 -13 19 3 5 10 5 16
2 6 -4 8 -2 5 4 -7 10 1 42 9 42 3 0 4 -18 3 -39z m-354 -140 c3 -5 2 -12 -3
-15 -5 -3 -9 1 -9 9 0 17 3 19 12 6z m62 -217 c-3 -3 -12 -4 -19 -1 -8 3 -5 6
6 6 11 1 17 -2 13 -5z m-2 -25 c11 -16 1 -19 -13 -3 -7 8 -8 14 -3 14 5 0 13
-5 16 -11z m-190 -19 c-3 -5 -12 -10 -18 -10 -7 0 -6 4 3 10 19 12 23 12 15 0z
m355 -20 c0 -5 -4 -10 -10 -10 -5 0 -10 5 -10 10 0 6 5 10 10 10 6 0 10 -4 10
-10z m130 -490 c0 -5 -4 -10 -10 -10 -5 0 -10 5 -10 10 0 6 5 10 10 10 6 0 10
-4 10 -10z m-280 -93 c16 -9 25 -21 24 -36 -1 -20 3 -22 35 -19 32 2 36 0 33
-20 -2 -16 4 -25 22 -32 32 -12 33 -23 2 -47 -18 -14 -22 -26 -19 -50 3 -17 0
-34 -7 -38 -21 -13 -32 11 -25 54 6 36 10 41 33 41 l27 1 -28 15 c-21 11 -26
20 -22 34 6 18 2 19 -52 15 -38 -3 -60 0 -65 8 -5 8 -8 5 -8 -9 0 -11 -4 -24
-9 -30 -19 -20 -19 -79 0 -118 17 -35 17 -41 3 -68 -22 -42 -37 -23 -38 47 -1
30 -4 55 -7 55 -6 0 4 53 23 122 6 20 17 39 26 43 9 3 12 13 9 26 -3 12 -3 28
0 37 6 14 7 13 13 -2 3 -9 17 -23 30 -29z m444 -84 c-10 -40 -14 -41 -14 -5 0
18 5 32 10 32 6 0 8 -11 4 -27z m411 -23 c3 -5 1 -10 -4 -10 -6 0 -11 5 -11
10 0 6 2 10 4 10 3 0 8 -4 11 -10z m-835 -36 c-5 -19 -11 -38 -13 -41 -13 -12
-27 11 -27 43 0 29 3 34 24 34 22 0 23 -2 16 -36z m150 -44 c0 -5 -5 -10 -11
-10 -7 0 -18 -8 -25 -17 -11 -15 -13 -16 -14 -2 0 8 5 20 12 27 15 15 38 16
38 2z m747 -72 c-2 -13 -4 -3 -4 22 0 25 2 35 4 23 2 -13 2 -33 0 -45z m-882
-23 c6 -29 6 -29 -9 -11 -9 11 -16 29 -16 40 0 28 17 8 25 -29z m20 15 c3 -5
1 -10 -4 -10 -6 0 -11 5 -11 10 0 6 2 10 4 10 3 0 8 -4 11 -10z m65 -6 c0 -8
-5 -12 -10 -9 -6 4 -8 11 -5 16 9 14 15 11 15 -7z"/>
<path d="M1896 7718 c7 -11 34 -10 34 1 0 6 -9 9 -19 8 -11 0 -17 -5 -15 -9z"/>
<path d="M2035 7711 c3 -5 -2 -12 -10 -14 -12 -4 -12 -5 1 -3 19 1 32 26 14
26 -6 0 -9 -4 -5 -9z"/>
<path d="M1727 7690 c3 -11 9 -20 15 -20 5 0 4 9 -2 20 -6 11 -12 20 -14 20
-2 0 -2 -9 1 -20z"/>
<path d="M1690 7650 c0 -5 5 -10 11 -10 5 0 7 5 4 10 -3 6 -8 10 -11 10 -2 0
-4 -4 -4 -10z"/>
<path d="M1665 7630 c3 -5 11 -10 16 -10 6 0 7 5 4 10 -3 6 -11 10 -16 10 -6
0 -7 -4 -4 -10z"/>
<path d="M1846 7518 c-15 -21 -13 -38 4 -38 5 0 7 7 3 16 -4 11 1 22 12 30 10
8 14 14 7 14 -6 0 -18 -10 -26 -22z"/>
<path d="M2265 7529 c-4 -6 -5 -12 -2 -15 2 -3 7 2 10 11 7 17 1 20 -8 4z"/>
<path d="M1987 7511 c-30 -11 -7 -52 27 -45 28 5 33 14 14 28 -10 7 -15 16
-11 19 8 9 -7 8 -30 -2z"/>
<path d="M2305 7380 c3 -5 11 -10 16 -10 6 0 7 5 4 10 -3 6 -11 10 -16 10 -6
0 -7 -4 -4 -10z"/>
<path d="M2298 7352 c9 -10 23 -16 31 -14 9 4 6 9 -10 18 -34 19 -42 17 -21
-4z"/>
<path d="M2357 7329 c7 -7 15 -10 18 -7 3 3 -2 9 -12 12 -14 6 -15 5 -6 -5z"/>
<path d="M1910 7315 c0 -8 8 -15 18 -14 10 0 12 3 4 6 -6 2 -10 9 -6 14 3 5 0
9 -5 9 -6 0 -11 -7 -11 -15z"/>
<path d="M1927 7196 c-4 -10 -1 -13 8 -9 8 3 12 9 9 14 -7 12 -11 11 -17 -5z"/>
<path d="M1650 7066 c0 -2 7 -6 15 -10 8 -3 15 -1 15 4 0 6 -7 10 -15 10 -8 0
-15 -2 -15 -4z"/>
<path d="M5650 7489 c0 -5 5 -7 10 -4 6 3 10 8 10 11 0 2 -4 4 -10 4 -5 0 -10
-5 -10 -11z"/>
<path d="M6080 7415 c0 -9 5 -15 11 -13 6 2 11 8 11 13 0 5 -5 11 -11 13 -6 2
-11 -4 -11 -13z"/>
<path d="M6270 7335 c0 -2 7 -8 15 -15 12 -10 15 -10 15 2 0 8 -7 15 -15 15
-8 0 -15 -1 -15 -2z"/>
<path d="M6112 7185 c-21 -12 -22 -14 -7 -29 9 -9 12 -16 7 -16 -5 0 -9 -7 -9
-15 0 -13 3 -13 19 2 12 11 15 20 9 26 -7 7 -5 14 6 22 23 17 3 24 -25 10z"/>
<path d="M5947 7136 c-3 -8 -1 -21 6 -28 14 -14 17 -58 5 -58 -4 0 -8 -8 -8
-17 0 -14 2 -15 9 -4 5 7 13 11 19 7 5 -3 19 3 31 13 20 17 20 19 4 32 -9 8
-14 9 -10 3 4 -7 0 -17 -8 -24 -18 -15 -18 -10 -4 27 5 15 7 24 3 20 -4 -4
-15 4 -24 19 -14 20 -19 22 -23 10z"/>
<path d="M5856 7082 c-9 -14 10 -33 27 -26 14 5 14 8 2 20 -16 16 -22 17 -29
6z"/>
<path d="M5910 7050 c-10 -6 -11 -10 -2 -10 8 0 6 -6 -5 -19 -16 -16 -19 -17
-30 -3 -7 9 -13 11 -13 5 0 -17 27 -36 35 -23 3 6 11 8 16 5 5 -4 9 0 9 9 0 8
6 17 13 19 9 4 9 6 -1 6 -7 1 -10 6 -7 11 8 12 4 12 -15 0z"/>
<path d="M5793 6735 c0 -13 3 -22 8 -19 5 3 9 14 9 25 0 10 -4 19 -9 19 -5 0
-8 -11 -8 -25z"/>
<path d="M5056 6822 c-3 -6 -1 -14 5 -17 14 -9 20 -2 10 14 -6 8 -11 9 -15 3z"/>
<path d="M5103 6815 c0 -8 4 -12 9 -9 5 3 6 10 3 15 -9 13 -12 11 -12 -6z"/>
<path d="M5165 6490 c-3 -5 -1 -10 4 -10 6 0 11 5 11 10 0 6 -2 10 -4 10 -3 0
-8 -4 -11 -10z"/>
<path d="M5170 6459 c0 -5 5 -7 10 -4 6 3 10 8 10 11 0 2 -4 4 -10 4 -5 0 -10
-5 -10 -11z"/>
<path d="M6688 6713 c7 -3 16 -2 19 1 4 3 -2 6 -13 5 -11 0 -14 -3 -6 -6z"/>
<path d="M6646 6574 c-6 -16 2 -18 22 -5 11 7 11 9 -1 14 -9 3 -18 -1 -21 -9z"/>
<path d="M6680 6529 c0 -5 5 -7 10 -4 6 3 10 8 10 11 0 2 -4 4 -10 4 -5 0 -10
-5 -10 -11z"/>
<path d="M6556 6472 c-3 -5 1 -9 9 -9 8 0 12 4 9 9 -3 4 -7 8 -9 8 -2 0 -6 -4
-9 -8z"/>
<path d="M355 5760 c-3 -5 1 -10 10 -10 9 0 13 5 10 10 -3 6 -8 10 -10 10 -2
0 -7 -4 -10 -10z"/>
<path d="M626 5755 c-3 -8 -1 -15 4 -15 6 0 10 7 10 15 0 8 -2 15 -4 15 -2 0
-6 -7 -10 -15z"/>
<path d="M655 5760 c-3 -5 -1 -10 4 -10 6 0 11 5 11 10 0 6 -2 10 -4 10 -3 0
-8 -4 -11 -10z"/>
<path d="M800 5730 c0 -5 5 -10 10 -10 6 0 10 5 10 10 0 6 -4 10 -10 10 -5 0
-10 -4 -10 -10z"/>
<path d="M675 5720 c-3 -5 -1 -10 4 -10 6 0 11 5 11 10 0 6 -2 10 -4 10 -3 0
-8 -4 -11 -10z"/>
<path d="M601 5704 c0 -11 3 -14 6 -6 3 7 2 16 -1 19 -3 4 -6 -2 -5 -13z"/>
<path d="M796 5695 c4 -8 8 -15 10 -15 2 0 4 7 4 15 0 8 -4 15 -10 15 -5 0 -7
-7 -4 -15z"/>
<path d="M820 5680 c0 -5 5 -10 10 -10 6 0 10 5 10 10 0 6 -4 10 -10 10 -5 0
-10 -4 -10 -10z"/>
<path d="M890 5680 c0 -5 5 -10 10 -10 6 0 10 5 10 10 0 6 -4 10 -10 10 -5 0
-10 -4 -10 -10z"/>
<path d="M395 5620 c3 -5 8 -10 11 -10 2 0 4 5 4 10 0 6 -5 10 -11 10 -5 0 -7
-4 -4 -10z"/>
<path d="M346 5585 c-3 -8 -1 -15 4 -15 6 0 10 7 10 15 0 8 -2 15 -4 15 -2 0
-6 -7 -10 -15z"/>
<path d="M267 5523 c-4 -3 -7 -11 -7 -17 0 -6 5 -5 12 2 6 6 9 14 7 17 -3 3
-9 2 -12 -2z"/>
<path d="M195 5460 c3 -5 11 -10 16 -10 6 0 7 5 4 10 -3 6 -11 10 -16 10 -6 0
-7 -4 -4 -10z"/>
<path d="M189 5374 c-5 -15 -12 -31 -16 -36 -3 -6 4 -5 14 1 11 6 23 7 27 4 3
-3 6 -1 6 5 0 7 -5 12 -11 12 -6 0 -8 9 -4 20 9 30 -4 24 -16 -6z"/>
<path d="M244 5392 c3 -5 0 -13 -6 -15 -9 -4 -10 -6 -1 -6 17 -1 25 16 12 25
-7 4 -9 3 -5 -4z"/>
<path d="M6260 4426 c0 -22 26 -43 38 -31 8 8 -16 55 -28 55 -5 0 -10 -11 -10
-24z"/>
<path d="M6020 4360 c0 -5 9 -10 20 -10 11 0 20 5 20 10 0 6 -9 10 -20 10 -11
0 -20 -4 -20 -10z"/>
<path d="M6147 4343 c-3 -5 1 -19 9 -33 l14 -25 -6 30 c-8 35 -10 39 -17 28z"/>
<path d="M6080 4332 c0 -6 5 -14 11 -17 6 -4 8 -13 5 -21 -3 -8 1 -14 8 -14 9
0 12 7 9 20 -6 22 -33 49 -33 32z"/>
<path d="M6260 4313 c0 -13 5 -23 10 -23 13 0 13 11 0 30 -8 12 -10 11 -10 -7z"/>
<path d="M5750 4198 c0 -29 13 -58 25 -58 19 0 13 46 -7 59 -14 8 -18 8 -18
-1z"/>
<path d="M5817 4193 c-4 -3 -2 -12 4 -20 6 -7 8 -13 5 -13 -4 0 -1 -7 8 -15 8
-8 19 -15 25 -15 6 0 11 -14 11 -31 0 -17 4 -28 10 -24 20 12 10 51 -15 65
-16 8 -25 22 -25 37 0 22 -10 30 -23 16z"/>
<path d="M6110 4162 c0 -10 22 -32 32 -32 4 0 12 8 17 18 8 15 5 18 -20 20
-16 1 -29 -1 -29 -6z"/>
<path d="M6240 4140 c0 -5 5 -10 10 -10 6 0 10 5 10 10 0 6 -4 10 -10 10 -5 0
-10 -4 -10 -10z"/>
<path d="M5802 4113 c5 -25 28 -28 28 -4 0 12 -6 21 -16 21 -9 0 -14 -7 -12
-17z"/>
<path d="M6080 4118 c0 -7 9 -26 19 -42 11 -16 17 -35 14 -43 -4 -9 3 -16 16
-20 15 -4 20 -11 16 -23 -7 -23 20 -47 28 -26 4 9 2 18 -3 21 -6 4 -10 17 -10
31 0 13 -4 24 -8 24 -5 0 -15 12 -23 28 -18 35 -49 67 -49 50z"/>
<path d="M5805 4060 l-30 -8 33 -1 c17 0 32 4 32 9 0 6 -1 9 -2 9 -2 -1 -16
-5 -33 -9z"/>
<path d="M5972 3993 c4 -39 28 -42 28 -4 0 21 -5 31 -16 31 -11 0 -14 -8 -12
-27z"/>
<path d="M6030 3970 c8 -5 20 -10 25 -10 6 0 3 5 -5 10 -8 5 -19 10 -25 10 -5
0 -3 -5 5 -10z"/>
<path d="M5920 3950 c0 -5 5 -10 10 -10 6 0 10 5 10 10 0 6 -4 10 -10 10 -5 0
-10 -4 -10 -10z"/>
<path d="M6232 3939 c2 -6 8 -10 13 -10 5 0 11 4 13 10 2 6 -4 11 -13 11 -9 0
-15 -5 -13 -11z"/>
<path d="M6000 3926 c0 -9 7 -16 16 -16 9 0 14 5 12 12 -6 18 -28 21 -28 4z"/>
<path d="M6180 3936 c0 -17 24 -76 31 -76 15 0 20 20 9 32 -6 7 -17 22 -25 33
-8 11 -15 16 -15 11z"/>
<path d="M6267 3908 c-15 -12 -14 -16 16 -48 19 -19 39 -45 46 -58 12 -22 31
-30 31 -12 0 6 -9 19 -20 30 -11 11 -20 31 -20 45 0 14 -4 25 -10 25 -5 0 -7
7 -4 15 7 18 -16 20 -39 3z"/>
<path d="M6231 3824 c0 -11 3 -14 6 -6 3 7 2 16 -1 19 -3 4 -6 -2 -5 -13z"/>
<path d="M6170 3820 c0 -5 5 -10 10 -10 6 0 10 5 10 10 0 6 -4 10 -10 10 -5 0
-10 -4 -10 -10z"/>
<path d="M6200 3710 c0 -11 7 -20 15 -20 9 0 15 -10 15 -26 0 -14 -4 -23 -8
-20 -5 3 -9 -1 -9 -9 0 -15 35 -12 51 6 8 9 7 10 -3 4 -11 -6 -13 -4 -8 7 3 9
-3 24 -14 34 -10 9 -19 23 -19 31 0 7 -4 13 -10 13 -5 0 -10 -9 -10 -20z"/>
<path d="M6480 3570 c-77 -10 -140 -29 -140 -41 0 -6 -7 -8 -16 -5 -9 3 -12 2
-9 -5 4 -5 21 -8 38 -5 22 4 18 1 -13 -10 -25 -8 -53 -13 -62 -10 -14 3 -18
-2 -18 -23 0 -15 -5 -32 -12 -39 -12 -12 -13 -81 -2 -116 6 -20 7 -20 22 0 14
19 15 19 7 -1 -18 -47 -18 -68 0 -82 14 -9 15 -13 4 -13 -12 0 -12 -2 1 -10 8
-5 12 -10 7 -10 -12 0 22 -62 51 -93 22 -23 34 -27 77 -27 27 0 57 -1 65 -1
31 -2 135 23 142 34 4 7 8 56 8 110 l0 97 -34 0 c-27 0 -36 -5 -41 -21 -14
-42 -48 -91 -55 -79 -5 8 -9 7 -13 -3 -8 -21 -42 -11 -61 18 -17 26 -12 55 23
123 34 66 54 75 170 70 66 -3 105 -9 117 -19 24 -20 44 -72 44 -117 0 -21 6
-44 13 -51 10 -11 9 -12 -1 -7 -10 6 -12 -2 -10 -29 2 -31 4 -34 14 -21 10 15
12 14 17 -6 4 -12 1 -28 -5 -35 -8 -10 -6 -17 8 -27 12 -9 21 -11 25 -4 10 15
20 -39 13 -67 -3 -14 -10 -23 -14 -20 -5 3 -7 -9 -5 -27 3 -19 1 -28 -3 -20
-7 10 -13 8 -30 -6 -22 -19 -31 -39 -12 -27 5 3 15 -16 23 -42 15 -51 42 -69
59 -39 5 9 14 14 19 10 6 -4 4 -13 -7 -25 -9 -10 -12 -19 -6 -19 18 0 33 35
20 48 -8 8 -7 17 3 34 11 18 13 50 8 148 -4 69 -9 134 -12 145 -11 44 -20 65
-26 65 -4 0 -8 11 -9 24 -1 21 -24 69 -77 165 -8 13 -35 43 -60 67 -59 54
-106 62 -245 44z m370 -413 c0 -20 0 -20 -15 -1 -19 25 -19 35 0 28 8 -4 15
-16 15 -27z"/>
<path d="M5847 3513 c-13 -12 -7 -33 13 -53 18 -18 21 -18 27 -5 6 18 -12 65
-25 65 -5 0 -12 -3 -15 -7z"/>
<path d="M6288 3503 c7 -3 16 -2 19 1 4 3 -2 6 -13 5 -11 0 -14 -3 -6 -6z"/>
<path d="M5965 3480 c3 -5 8 -10 11 -10 2 0 4 5 4 10 0 6 -5 10 -11 10 -5 0
-7 -4 -4 -10z"/>
<path d="M6020 3487 c0 -18 25 -57 37 -57 20 0 16 14 -12 40 -14 13 -25 21
-25 17z"/>
<path d="M6016 3406 c10 -8 21 -12 24 -10 5 6 -21 24 -34 24 -6 0 -1 -6 10
-14z"/>
<path d="M5745 3400 c3 -5 8 -10 11 -10 2 0 4 5 4 10 0 6 -5 10 -11 10 -5 0
-7 -4 -4 -10z"/>
<path d="M6065 3400 c3 -5 8 -10 11 -10 2 0 4 5 4 10 0 6 -5 10 -11 10 -5 0
-7 -4 -4 -10z"/>
<path d="M6064 3349 c-3 -6 -1 -16 5 -22 8 -8 11 -5 11 11 0 24 -5 28 -16 11z"/>
<path d="M6000 3246 c0 -9 5 -16 10 -16 6 0 10 4 10 9 0 6 -4 13 -10 16 -5 3
-10 -1 -10 -9z"/>
<path d="M5911 3234 c0 -11 3 -14 6 -6 3 7 2 16 -1 19 -3 4 -6 -2 -5 -13z"/>
<path d="M6782 3135 c-1 -13 2 -26 6 -29 5 -3 9 8 9 24 0 36 -12 40 -15 5z"/>
<path d="M6787 3063 c-4 -3 -7 -18 -7 -31 0 -31 9 -24 16 12 4 27 2 31 -9 19z"/>
<path d="M6750 3009 c0 -5 5 -7 10 -4 6 3 10 8 10 11 0 2 -4 4 -10 4 -5 0 -10
-5 -10 -11z"/>
<path d="M6742 2968 c-7 -7 -12 -19 -12 -27 0 -14 -1 -14 -10 -1 -7 12 -9 10
-7 -8 1 -23 12 -29 22 -12 4 6 12 7 18 3 9 -5 9 -3 0 8 -10 12 -10 18 -1 27 6
6 9 14 7 17 -3 2 -11 -1 -17 -7z"/>
<path d="M6632 2880 c0 -14 2 -19 5 -12 2 6 2 18 0 25 -3 6 -5 1 -5 -13z"/>
<path d="M6657 2861 c4 -16 10 -18 42 -12 2 1 -2 8 -9 16 -18 21 -39 19 -33
-4z"/>
<path d="M6520 2680 c0 -6 7 -10 15 -10 8 0 15 2 15 4 0 2 -7 6 -15 10 -8 3
-15 1 -15 -4z"/>
<path d="M6438 2673 c12 -2 22 -9 22 -14 0 -6 5 -7 11 -3 15 9 -9 24 -36 22
-17 -1 -17 -1 3 -5z"/>
<path d="M6568 2673 c7 -3 16 -2 19 1 4 3 -2 6 -13 5 -11 0 -14 -3 -6 -6z"/>
<path d="M5192 4070 c0 -14 2 -19 5 -12 2 6 2 18 0 25 -3 6 -5 1 -5 -13z"/>
<path d="M5142 4060 c1 -13 9 -25 16 -28 17 -5 15 23 -4 39 -14 11 -15 10 -12
-11z"/>
<path d="M5640 3970 c0 -18 6 -33 15 -37 21 -8 23 -3 18 35 -7 42 -33 43 -33
2z"/>
<path d="M3085 3590 c-16 -18 -16 -20 -2 -20 9 0 21 9 27 20 6 11 7 20 2 20
-5 0 -17 -9 -27 -20z"/>
<path d="M2993 3488 c-6 -7 -13 -21 -16 -31 -6 -15 -3 -16 13 -7 10 5 18 19
17 30 -2 24 -2 24 -14 8z"/>
<path d="M3035 3440 c-3 -5 -1 -10 4 -10 6 0 11 5 11 10 0 6 -2 10 -4 10 -3 0
-8 -4 -11 -10z"/>
<path d="M2935 3420 c-3 -5 1 -10 9 -10 9 0 16 5 16 10 0 6 -4 10 -9 10 -6 0
-13 -4 -16 -10z"/>
<path d="M2786 3411 c-4 -7 -5 -15 -2 -18 9 -9 19 4 14 18 -4 11 -6 11 -12 0z"/>
<path d="M2987 3393 c-7 -16 -12 -36 -10 -45 2 -9 -8 -35 -22 -58 -15 -23 -25
-44 -22 -46 2 -2 10 7 17 21 7 14 19 25 26 25 12 0 29 28 26 43 -1 4 2 7 7 7
5 0 8 18 8 40 -2 47 -11 51 -30 13z"/>
<path d="M2915 3390 c-3 -5 -1 -10 4 -10 6 0 11 5 11 10 0 6 -2 10 -4 10 -3 0
-8 -4 -11 -10z"/>
<path d="M2663 3356 c-12 -13 -19 -27 -16 -30 7 -6 43 32 43 46 0 13 -5 10
-27 -16z"/>
<path d="M2825 3370 c-3 -5 -1 -10 4 -10 6 0 11 5 11 10 0 6 -2 10 -4 10 -3 0
-8 -4 -11 -10z"/>
<path d="M2802 3350 c0 -14 2 -19 5 -12 2 6 2 18 0 25 -3 6 -5 1 -5 -13z"/>
<path d="M2895 3360 c-3 -5 -1 -10 4 -10 6 0 11 5 11 10 0 6 -2 10 -4 10 -3 0
-8 -4 -11 -10z"/>
<path d="M3128 3340 c-10 -9 -18 -23 -18 -30 0 -7 10 -1 21 14 25 31 22 41 -3
16z"/>
<path d="M3398 3354 c-5 -4 -8 -16 -8 -28 0 -14 3 -17 11 -9 6 6 9 19 7 28 -1
9 -6 13 -10 9z"/>
<path d="M2716 3323 c-6 -14 -5 -15 5 -6 7 7 10 15 7 18 -3 3 -9 -2 -12 -12z"/>
<path d="M2847 3310 c-15 -16 -27 -35 -27 -42 0 -7 14 2 30 20 26 29 38 52 27
52 -2 0 -16 -13 -30 -30z"/>
<path d="M2675 3280 c-3 -5 -1 -10 4 -10 6 0 11 5 11 10 0 6 -2 10 -4 10 -3 0
-8 -4 -11 -10z"/>
<path d="M2900 3224 c0 -3 7 -12 15 -20 16 -17 18 -14 9 10 -6 15 -24 23 -24
10z"/>
<path d="M2887 3152 c-20 -22 -22 -33 -4 -26 15 6 40 44 29 44 -5 0 -16 -8
-25 -18z"/>
<path d="M3150 3160 c0 -5 4 -10 9 -10 6 0 13 5 16 10 3 6 -1 10 -9 10 -9 0
-16 -4 -16 -10z"/>
<path d="M2440 3111 c0 -24 18 -37 32 -23 8 8 7 16 -2 27 -17 21 -30 19 -30
-4z m30 -11 c0 -5 -5 -10 -11 -10 -5 0 -7 5 -4 10 3 6 8 10 11 10 2 0 4 -4 4
-10z"/>
<path d="M2580 3119 c0 -5 5 -7 10 -4 6 3 10 8 10 11 0 2 -4 4 -10 4 -5 0 -10
-5 -10 -11z"/>
<path d="M2973 3033 c-16 -6 -17 -33 -3 -33 11 0 26 28 19 34 -2 2 -10 1 -16
-1z"/>
<path d="M2470 3020 c0 -5 5 -10 11 -10 5 0 7 5 4 10 -3 6 -8 10 -11 10 -2 0
-4 -4 -4 -10z"/>
<path d="M3436 2995 c-3 -8 -1 -15 4 -15 6 0 10 7 10 15 0 8 -2 15 -4 15 -2 0
-6 -7 -10 -15z"/>
<path d="M2520 2950 c0 -5 5 -10 10 -10 6 0 10 5 10 10 0 6 -4 10 -10 10 -5 0
-10 -4 -10 -10z"/>
<path d="M2870 2940 c0 -5 7 -10 15 -10 8 0 15 5 15 10 0 6 -7 10 -15 10 -8 0
-15 -4 -15 -10z"/>
<path d="M2940 2938 c0 -7 5 -20 10 -28 8 -12 10 -11 10 7 0 12 -4 25 -10 28
-5 3 -10 0 -10 -7z"/>
<path d="M2855 2823 c-4 -21 -9 -46 -12 -55 -2 -10 0 -18 6 -18 11 0 17 20 24
78 5 45 -11 40 -18 -5z"/>
<path d="M2956 2735 c4 -8 8 -15 10 -15 2 0 4 7 4 15 0 8 -4 15 -10 15 -5 0
-7 -7 -4 -15z"/>
<path d="M2900 2700 c0 -5 5 -10 10 -10 6 0 10 5 10 10 0 6 -4 10 -10 10 -5 0
-10 -4 -10 -10z"/>
<path d="M4113 2684 c4 -4 2 -13 -4 -20 -6 -7 -7 -19 -3 -25 5 -9 11 -7 21 6
17 25 17 32 -4 39 -10 4 -14 4 -10 0z"/>
<path d="M3287 2663 c-3 -5 -2 -15 2 -22 7 -10 10 -10 16 -1 4 6 3 16 -3 22
-5 5 -12 6 -15 1z"/>
<path d="M796 3591 c-3 -5 1 -14 8 -20 12 -10 13 -8 9 8 -6 23 -9 25 -17 12z"/>
<path d="M5107 3423 c-4 -6 0 -19 8 -29 11 -15 14 -16 15 -4 0 21 -16 44 -23
33z"/>
<path d="M5195 3380 c-3 -5 -2 -10 4 -10 5 0 13 5 16 10 3 6 2 10 -4 10 -5 0
-13 -4 -16 -10z"/>
<path d="M5225 3360 c-3 -5 3 -10 15 -10 12 0 18 5 15 10 -3 6 -10 10 -15 10
-5 0 -12 -4 -15 -10z"/>
<path d="M1621 2494 c0 -11 3 -14 6 -6 3 7 2 16 -1 19 -3 4 -6 -2 -5 -13z"/>
<path d="M2381 1324 c0 -11 3 -14 6 -6 3 7 2 16 -1 19 -3 4 -6 -2 -5 -13z"/>
<path d="M1064 1583 c10 -11 37 -12 30 -2 -3 5 -12 9 -21 9 -9 0 -13 -3 -9 -7z"/>
<path d="M2237 2879 c3 -10 9 -16 14 -13 13 8 11 21 -5 27 -10 4 -12 0 -9 -14z"/>
<path d="M2185 2840 c3 -5 8 -10 11 -10 2 0 4 5 4 10 0 6 -5 10 -11 10 -5 0
-7 -4 -4 -10z"/>
<path d="M2203 2831 c-13 -20 -8 -31 14 -31 7 0 13 11 13 25 0 30 -11 32 -27
6z"/>
<path d="M4980 2530 c20 -13 33 -13 25 0 -3 6 -14 10 -23 10 -15 0 -15 -2 -2
-10z"/>
<path d="M2793 2474 c-3 -8 -1 -25 5 -37 10 -20 11 -18 11 16 1 39 -5 48 -16
21z"/>
<path d="M1970 2439 c0 -5 5 -7 10 -4 6 3 10 8 10 11 0 2 -4 4 -10 4 -5 0 -10
-5 -10 -11z"/>
<path d="M3950 2406 c0 -9 5 -16 10 -16 6 0 10 4 10 9 0 6 -4 13 -10 16 -5 3
-10 -1 -10 -9z"/>
<path d="M3305 2280 c-4 -6 -1 -26 5 -45 6 -19 8 -50 4 -70 -4 -21 0 -85 7
-144 13 -98 14 -103 21 -61 3 25 7 71 7 103 1 31 5 57 10 57 5 0 2 24 -6 53
-8 28 -17 67 -20 85 -5 32 -16 41 -28 22z"/>
<path d="M2600 2155 c0 -15 4 -24 10 -20 6 3 10 12 10 20 0 8 -4 17 -10 20 -6
4 -10 -5 -10 -20z"/>
<path d="M2081 2154 c0 -11 3 -14 6 -6 3 7 2 16 -1 19 -3 4 -6 -2 -5 -13z"/>
<path d="M2190 2081 c0 -6 5 -13 10 -16 6 -3 10 1 10 9 0 9 -4 16 -10 16 -5 0
-10 -4 -10 -9z"/>
<path d="M2691 2064 c0 -11 3 -14 6 -6 3 7 2 16 -1 19 -3 4 -6 -2 -5 -13z"/>
<path d="M2430 2036 c0 -8 5 -18 10 -21 6 -3 10 -16 10 -27 0 -12 3 -19 6 -16
8 9 -7 78 -17 78 -5 0 -9 -6 -9 -14z"/>
<path d="M2307 1993 c-4 -7 1 -30 12 -54 19 -38 19 -44 6 -76 -22 -52 -17 -64
7 -18 11 22 24 42 28 45 4 3 12 22 18 43 8 29 8 37 -3 37 -7 0 -16 -7 -19 -16
-8 -21 -33 -2 -38 29 -2 15 -6 18 -11 10z"/>
<path d="M5360 1968 c0 -16 5 -28 10 -28 13 0 13 20 0 40 -8 12 -10 9 -10 -12z"/>
<path d="M2410 1933 c0 -10 5 -25 10 -33 8 -12 10 -9 10 12 0 15 -4 30 -10 33
-5 3 -10 -2 -10 -12z"/>
<path d="M3338 1885 c-7 -7 -1 -92 7 -106 7 -11 34 -188 35 -225 0 -12 -9 -31
-20 -44 -13 -15 -20 -37 -20 -64 1 -40 1 -41 15 -16 l14 25 9 -25 c9 -23 10
-21 17 23 4 27 14 51 21 54 11 4 13 28 10 110 -4 88 -8 111 -25 134 -22 30
-29 54 -30 107 -1 29 -17 43 -33 27z"/>
<path d="M5351 1874 c0 -11 3 -14 6 -6 3 7 2 16 -1 19 -3 4 -6 -2 -5 -13z"/>
<path d="M2625 1859 c-9 -13 4 -69 16 -69 5 0 9 6 9 13 0 6 3 22 6 33 6 22
-20 42 -31 23z"/>
<path d="M2481 1814 c0 -11 3 -14 6 -6 3 7 2 16 -1 19 -3 4 -6 -2 -5 -13z"/>
<path d="M2400 1779 c0 -17 4 -28 10 -24 6 3 10 17 10 31 0 13 -4 24 -10 24
-5 0 -10 -14 -10 -31z"/>
<path d="M2952 1765 c0 -31 13 -71 19 -60 7 13 5 24 -9 55 -9 21 -11 22 -10 5z"/>
<path d="M2750 1745 c0 -8 4 -15 10 -15 5 0 7 7 4 15 -4 8 -8 15 -10 15 -2 0
-4 -7 -4 -15z"/>
<path d="M2935 1655 c-15 -14 -20 -32 -19 -65 1 -25 3 -82 4 -127 3 -82 14
-107 26 -58 10 40 29 23 32 -28 4 -56 20 -62 24 -9 4 53 -26 160 -52 184 -18
17 -21 27 -15 57 4 20 11 39 17 42 6 4 9 11 7 16 -2 5 -13 0 -24 -12z"/>
<path d="M2791 1634 c0 -11 3 -14 6 -6 3 7 2 16 -1 19 -3 4 -6 -2 -5 -13z"/>
<path d="M2852 1608 c-27 -56 -29 -63 -17 -63 5 0 9 6 7 13 -2 6 2 12 8 12 5
0 10 9 10 20 0 11 4 20 9 20 5 0 11 9 14 20 9 35 -9 22 -31 -22z"/>
<path d="M3017 1623 c-3 -5 -2 -15 2 -22 7 -10 10 -10 16 -1 4 6 3 16 -3 22
-5 5 -12 6 -15 1z"/>
<path d="M2755 1593 c4 -10 10 -26 12 -35 6 -21 33 -24 33 -5 0 17 -29 57 -42
57 -6 0 -7 -7 -3 -17z"/>
<path d="M3001 1534 c0 -11 3 -14 6 -6 3 7 2 16 -1 19 -3 4 -6 -2 -5 -13z"/>
<path d="M2776 1501 l-29 -19 44 -21 c23 -12 44 -21 45 -21 5 0 -18 64 -25 72
-4 4 -19 -1 -35 -11z"/>
<path d="M3101 1502 c-15 -27 -14 -39 3 -45 16 -6 28 34 16 54 -6 8 -11 6 -19
-9z"/>
<path d="M3215 1508 c-3 -8 -2 -43 3 -79 l8 -64 7 69 c5 44 4 73 -2 79 -7 7
-12 5 -16 -5z"/>
<path d="M3517 1496 c-6 -15 1 -26 15 -26 11 0 10 27 -1 34 -5 3 -11 0 -14 -8z"/>
<path d="M3618 1478 c-7 -18 2 -39 13 -32 12 7 12 44 0 44 -5 0 -11 -6 -13
-12z"/>
<path d="M4346 1461 c-4 -7 -5 -15 -2 -18 9 -9 19 4 14 18 -4 11 -6 11 -12 0z"/>
<path d="M2670 1426 c0 -9 7 -16 16 -16 17 0 14 22 -4 28 -7 2 -12 -3 -12 -12z"/>
<path d="M2705 1411 c-7 -24 -4 -93 6 -106 4 -5 9 -19 12 -30 4 -15 5 -14 4 5
-1 14 2 31 7 38 4 7 4 32 0 55 -4 23 -7 45 -6 50 4 16 -17 6 -23 -12z"/>
<path d="M4042 1419 c2 -7 10 -15 17 -17 8 -3 12 1 9 9 -2 7 -10 15 -17 17 -8
3 -12 -1 -9 -9z"/>
<path d="M2604 1329 c-10 -21 -12 -35 -6 -41 17 -17 34 0 22 23 -9 16 -7 19 9
19 14 0 19 5 15 15 -9 23 -22 18 -40 -16z"/>
<path d="M2654 1208 c4 -98 15 -118 51 -91 18 13 18 14 2 11 -17 -3 -19 6 -22
74 -4 79 -9 98 -26 98 -5 0 -8 -37 -5 -92z"/>
<path d="M2467 1153 c3 -7 9 -10 14 -7 14 8 11 21 -5 21 -8 0 -12 -6 -9 -14z"/>
<path d="M2622 1050 c0 -14 2 -19 5 -12 2 6 2 18 0 25 -3 6 -5 1 -5 -13z"/>
<path d="M2576 1051 c-4 -7 -5 -15 -2 -18 9 -9 19 4 14 18 -4 11 -6 11 -12 0z"/>
<path d="M2601 1014 c0 -11 3 -14 6 -6 3 7 2 16 -1 19 -3 4 -6 -2 -5 -13z"/>
<path d="M2625 1001 c-3 -5 -2 -12 3 -15 5 -3 9 1 9 9 0 17 -3 19 -12 6z"/>
<path d="M2721 954 c0 -11 3 -14 6 -6 3 7 2 16 -1 19 -3 4 -6 -2 -5 -13z"/>
<path d="M2791 910 c-13 -31 -9 -60 8 -60 12 0 34 67 26 80 -10 17 -19 11 -34
-20z"/>
<path d="M2577 868 c-5 -17 3 -48 13 -48 4 0 7 13 6 30 -1 31 -11 40 -19 18z"/>
<path d="M2744 854 c3 -9 6 -23 6 -32 1 -16 1 -16 10 0 11 18 3 48 -12 48 -6
0 -7 -7 -4 -16z"/>
<path d="M2555 790 c-3 -5 -2 -10 4 -10 5 0 13 5 16 10 3 6 2 10 -4 10 -5 0
-13 -4 -16 -10z"/>
<path d="M2876 774 c-9 -23 -2 -28 13 -10 7 8 8 17 3 20 -6 3 -13 -1 -16 -10z"/>
<path d="M2800 754 c0 -8 5 -12 10 -9 6 3 10 10 10 16 0 5 -4 9 -10 9 -5 0
-10 -7 -10 -16z"/>
<path d="M2530 732 c0 -4 5 -13 11 -19 8 -8 8 -17 -1 -33 -9 -17 -8 -26 6 -47
l17 -26 23 39 24 39 -24 3 c-16 2 -26 12 -30 28 -6 22 -26 35 -26 16z"/>
<path d="M3000 600 c0 -5 5 -10 10 -10 6 0 10 5 10 10 0 6 -4 10 -10 10 -5 0
-10 -4 -10 -10z"/>
<path d="M2830 545 c0 -8 5 -15 10 -15 6 0 10 7 10 15 0 8 -4 15 -10 15 -5 0
-10 -7 -10 -15z"/>
<path d="M2981 451 c-17 -11 -7 -41 14 -41 9 0 15 9 15 25 0 27 -6 30 -29 16z"/>
<path d="M2623 433 c-18 -7 -16 -23 2 -23 8 0 15 7 15 15 0 8 -1 15 -2 14 -2
0 -9 -3 -15 -6z"/>
<path d="M3200 316 c0 -14 5 -26 10 -26 6 0 10 9 10 19 0 11 -4 23 -10 26 -6
4 -10 -5 -10 -19z"/>
<path d="M3351 304 c0 -11 3 -14 6 -6 3 7 2 16 -1 19 -3 4 -6 -2 -5 -13z"/>
<path d="M3260 250 c0 -22 5 -40 10 -40 6 0 10 -18 10 -40 0 -36 -3 -40 -24
-40 -22 0 -25 5 -29 43 l-4 42 -1 -42 c-1 -24 -6 -43 -12 -43 -5 0 -10 -18
-10 -40 0 -22 -4 -40 -10 -40 -5 0 -10 -11 -10 -25 l0 -25 135 0 135 0 0 65
c0 51 -3 65 -15 65 -11 0 -15 11 -15 40 0 29 4 40 15 40 17 0 20 16 4 25 -5 4
-18 0 -28 -9 -10 -9 -25 -16 -34 -16 -14 0 -17 -11 -17 -63 0 -50 -4 -66 -20
-79 -27 -24 -32 -9 -24 72 5 49 3 70 -5 70 -6 0 -11 17 -11 40 0 33 -3 40 -20
40 -17 0 -20 -7 -20 -40z"/>
<path d="M3130 25 c0 -16 6 -25 15 -25 9 0 15 9 15 25 0 16 -6 25 -15 25 -9 0
-15 -9 -15 -25z"/>
</g>
</svg>
